<svg width="64" height="64" viewBox="0 0 64 64" fill="none" xmlns="http://www.w3.org/2000/svg">
<g clip-path="url(#clip0_148_1587)">
<path d="M32.0283 15.6948C31.4655 15.6948 30.9088 15.7235 30.3604 15.7797C29.8119 15.8358 29.271 15.9191 28.7394 16.0284C28.2078 16.1377 27.6855 16.273 27.1738 16.4327L25.6717 16.9842L24.2416 17.6748L22.8921 18.4959L21.6312 19.4391L20.4676 20.496L19.4097 21.6585L18.4655 22.918L17.6433 24.2663L16.9524 25.6948C16.7447 26.1834 16.5599 26.6842 16.4 27.1956C16.2401 27.7069 16.1048 28.2289 15.9953 28.76C15.8858 29.291 15.8026 29.8313 15.7462 30.3793C15.6898 30.9274 15.6615 31.4834 15.6615 32.0456C15.6615 32.6078 15.6902 33.1638 15.7462 33.7119C15.8018 34.2556 15.885 34.7961 15.9953 35.3314C16.1048 35.8645 16.2401 36.3845 16.4 36.8958C16.5599 37.4072 16.7445 37.9078 16.9524 38.3966L17.6433 39.8251L18.4655 41.1732L19.4097 42.4329L20.4676 43.5954L21.6312 44.6523L22.8921 45.5955L24.2416 46.4166L25.6717 47.1072L27.1738 47.6587L28.7394 48.063C29.2752 48.1732 29.8162 48.2563 30.3604 48.3119C30.9146 48.3685 31.4713 48.3967 32.0283 48.3966C32.5911 48.3966 33.1478 48.3679 33.696 48.3119C34.2402 48.2563 34.7812 48.1732 35.317 48.063L36.8828 47.6587L38.3849 47.1072L39.8148 46.4166L41.1645 45.5955L42.4254 44.6523L43.5892 43.5954L44.6471 42.4329L45.5913 41.1732L46.4135 39.8251L47.1044 38.3966L47.6568 36.8958C47.8167 36.3845 47.952 35.8625 48.0615 35.3314L48.3106 33.7117C48.3668 33.1636 48.3955 32.6076 48.3955 32.0454C48.3955 31.4832 48.3668 30.9272 48.3106 30.3791C48.255 29.8355 48.1718 29.295 48.0615 28.7598C47.952 28.2267 47.8167 27.7069 47.6568 27.1954L47.1044 25.6946L46.4135 24.2661L45.5913 22.9178L44.6471 21.6583L43.5892 20.4958L42.4254 19.4389L41.1645 18.4957L39.8148 17.6746L38.3849 16.984L36.8828 16.4325L35.317 16.0282L33.696 15.7795C33.1419 15.7229 32.5853 15.6945 32.0283 15.6946V15.6948ZM32.0283 21.3385C32.4004 21.3385 32.7676 21.3569 33.1293 21.3934L34.1955 21.5548L35.2254 21.8172L36.2116 22.1754L37.1492 22.6244L38.0308 23.1585L38.855 23.773L39.6149 24.4623L40.3048 25.2213L40.9199 26.0448L41.4546 26.9276L41.9036 27.8646C42.0385 28.1853 42.1583 28.5139 42.2624 28.85C42.3666 29.186 42.4541 29.5295 42.5249 29.8792C42.5956 30.229 42.6479 30.585 42.6862 30.9464L42.7412 32.0466C42.7412 32.4183 42.7227 32.7853 42.6862 33.147C42.6497 33.5087 42.596 33.8646 42.5249 34.2142C42.4537 34.5638 42.366 34.9072 42.2624 35.2435L41.9036 36.2288L41.4546 37.1658L40.9199 38.0485L40.3048 38.8721L39.6149 39.6311L38.855 40.3204L38.0308 40.9349L37.1492 41.469L36.2116 41.918L35.2254 42.2762L34.1955 42.5387L33.1293 42.6998C32.7634 42.7365 32.3959 42.7548 32.0281 42.7548C31.6603 42.7548 31.2927 42.7365 30.9267 42.6998L29.8605 42.5387C29.5105 42.4677 29.1669 42.38 28.8304 42.2762L27.8442 41.918L26.9066 41.469L26.025 40.9349L25.2008 40.3204L24.4409 39.6311L23.751 38.8721L23.1359 38.0485L22.6012 37.1658L22.1522 36.2288L21.7934 35.2435L21.5309 34.2142L21.3696 33.147C21.3329 32.7814 21.3145 32.4141 21.3146 32.0466C21.3145 31.6792 21.3329 31.312 21.3696 30.9464C21.4059 30.585 21.4598 30.2288 21.5309 29.8792C21.6014 29.5321 21.689 29.1886 21.7936 28.8502L22.1524 27.8648L22.6014 26.9278L23.1361 26.045L23.7512 25.2216L24.4411 24.4625L25.201 23.7732L26.0252 23.1587L26.9068 22.6246L27.8444 22.1756C28.1672 22.0401 28.4964 21.9205 28.8308 21.8174L29.8609 21.555C30.2109 21.484 30.5673 21.4299 30.9271 21.3936C31.2931 21.357 31.6607 21.3386 32.0285 21.3387L32.0283 21.3385Z" fill="url(#paint0_radial_148_1587)"/>
<path d="M49.059 11.0435C48.9291 11.0435 48.7992 11.0501 48.6699 11.0631C48.5406 11.0762 48.412 11.0958 48.2846 11.1218C48.1573 11.1478 48.0313 11.1801 47.9072 11.2188C47.783 11.2574 47.6609 11.3023 47.5412 11.3533C47.4215 11.4043 47.3044 11.4613 47.1904 11.524C47.0763 11.5867 46.9655 11.6551 46.8582 11.7289C46.7509 11.8028 46.6474 11.882 46.548 11.9663C46.4486 12.0505 46.3535 12.1397 46.263 12.2335C46.1725 12.3273 46.0867 12.4256 46.0059 12.5281C45.9251 12.6306 45.8495 12.737 45.7793 12.8471C45.7092 12.9571 45.6445 13.0706 45.5856 13.1871C45.5266 13.3036 45.4734 13.4231 45.4263 13.545C45.3792 13.6669 45.3382 13.7911 45.3035 13.9172C45.2687 14.0432 45.2402 14.1709 45.2182 14.2998C45.1961 14.4286 45.1804 14.5585 45.1712 14.6889C45.1647 14.7813 45.1614 14.8739 45.1614 14.9665C45.1614 15.0974 45.1679 15.2281 45.1809 15.3583C45.1938 15.4885 45.2133 15.6179 45.2391 15.746C45.2649 15.8742 45.2971 16.001 45.3354 16.126C45.3739 16.251 45.4185 16.3739 45.4691 16.4944C45.5198 16.6149 45.5763 16.7328 45.6387 16.8477C45.701 16.9625 45.7689 17.0741 45.8423 17.1821C45.9157 17.29 45.9944 17.3941 46.0781 17.4941C46.1618 17.5942 46.2504 17.69 46.3436 17.7812C46.4368 17.8723 46.5346 17.9587 46.6364 18.0399C46.7382 18.1213 46.844 18.1974 46.9533 18.2681C47.0627 18.3388 47.1756 18.404 47.2914 18.4633C47.4072 18.5227 47.5259 18.5762 47.647 18.6237C47.7681 18.671 47.8914 18.7123 48.0166 18.7473C48.1418 18.7822 48.2687 18.8108 48.3968 18.833C48.5248 18.8553 48.6539 18.8711 48.7835 18.8804C48.8752 18.8869 48.9672 18.8902 49.0592 18.8902C49.1892 18.8902 49.3191 18.8837 49.4484 18.8707C49.5777 18.8577 49.7063 18.8381 49.8336 18.8121C49.961 18.7861 50.0869 18.7537 50.2111 18.7151C50.3352 18.6764 50.4574 18.6315 50.5771 18.5806C50.6968 18.5297 50.8138 18.4727 50.9279 18.41C51.0419 18.3473 51.1528 18.2789 51.26 18.205C51.3673 18.1312 51.4708 18.052 51.5702 17.9678C51.6696 17.8835 51.7647 17.7943 51.8552 17.7004C51.9458 17.6066 52.0316 17.5082 52.1123 17.4058C52.1931 17.3033 52.2687 17.1968 52.3389 17.0867C52.4091 16.9767 52.4737 16.8632 52.5327 16.7466C52.5917 16.63 52.6448 16.5105 52.692 16.3886C52.739 16.2667 52.78 16.1425 52.8148 16.0165C52.8495 15.8905 52.878 15.7628 52.9001 15.6339C52.9221 15.5051 52.9378 15.3752 52.947 15.2447C52.9536 15.1524 52.9568 15.0598 52.9569 14.9671C52.9569 14.8364 52.9504 14.7057 52.9374 14.5755C52.9244 14.4454 52.905 14.316 52.8792 14.1878C52.8533 14.0596 52.8212 13.9328 52.7828 13.8079C52.7444 13.6829 52.6997 13.5599 52.6491 13.4395C52.5985 13.3189 52.5419 13.201 52.4795 13.0862C52.4173 12.9714 52.3493 12.8598 52.2759 12.7518C52.2025 12.6438 52.1237 12.5396 52.04 12.4395C51.9563 12.3394 51.8678 12.2436 51.7747 12.1525C51.6814 12.0614 51.5837 11.975 51.4819 11.8937C51.38 11.8125 51.2743 11.7364 51.1649 11.6657C51.0555 11.595 50.9427 11.5299 50.8268 11.4705C50.711 11.4112 50.5924 11.3576 50.4713 11.3102C50.3502 11.2628 50.2268 11.2216 50.1016 11.1866C49.9764 11.1516 49.8495 11.1229 49.7215 11.1007C49.5934 11.0785 49.4644 11.0627 49.3348 11.0535C49.243 11.0469 49.151 11.0437 49.059 11.0437V11.0435Z" fill="url(#paint1_radial_148_1587)"/>
<path d="M28.9245 0.0578472C27.1445 0.0549768 25.5559 0.0623569 24.1289 0.08245L20.303 0.184965C19.1696 0.234173 18.1682 0.298343 17.2693 0.38138C16.8199 0.422797 16.3959 0.469134 15.9941 0.520187C15.6116 0.568385 15.2303 0.62451 14.8502 0.68852C14.4883 0.75003 14.1449 0.816456 13.8156 0.888627C13.4863 0.960798 13.1718 1.03871 12.8684 1.12237C12.5717 1.20417 12.2774 1.29414 11.9857 1.39219C11.6999 1.48855 11.421 1.59066 11.1457 1.69973C10.595 1.91789 10.0578 2.16269 9.50462 2.43702C9.07897 2.6482 8.68572 2.86205 8.31216 3.08841C7.93859 3.31476 7.58471 3.55383 7.2382 3.81422C6.88136 4.08368 6.53742 4.36981 6.20751 4.67166C5.86265 4.98577 5.51041 5.33124 5.14443 5.71731C4.68454 6.19975 4.28494 6.64959 3.93023 7.09102C3.75288 7.31164 3.58681 7.52979 3.43037 7.74917C3.27566 7.96537 3.12776 8.18637 2.98689 8.41183C2.84747 8.63531 2.71543 8.8629 2.58913 9.09705C2.46086 9.33523 2.33963 9.57713 2.22561 9.82244C1.99228 10.3235 1.77454 10.8632 1.55721 11.4656C1.39597 11.9109 1.2516 12.3621 1.12439 12.8184C0.994601 13.2846 0.879168 13.7724 0.776242 14.2999C0.673317 14.8275 0.583513 15.3948 0.504576 16.0222C0.419513 16.7099 0.351559 17.3996 0.300775 18.0907C0.243367 18.8506 0.1958 19.6867 0.156844 20.6173L0.0645801 23.7117L0.0149625 27.4836L0.000610352 32.0429L0.0426417 38.673L0.173861 43.6962L0.274942 45.6584L0.401241 47.2843C0.441728 47.7225 0.492384 48.1598 0.553169 48.5956C0.608528 48.9827 0.667986 49.3215 0.731956 49.6147C0.861755 50.2107 1.01524 50.8014 1.19205 51.3853C1.36133 51.9443 1.55493 52.4957 1.77228 53.0379C1.98593 53.5689 2.21966 54.0811 2.4739 54.5739C2.72814 55.0668 3.00288 55.5405 3.29812 55.9954C3.59337 56.4504 3.90912 56.8867 4.24619 57.3043C4.58288 57.722 4.941 58.122 5.31911 58.5025C5.69781 58.8839 6.09721 59.2468 6.51814 59.5917C6.94404 59.9405 7.38676 60.2682 7.84469 60.5738C8.26972 60.8579 8.69024 61.1181 9.11383 61.357C9.53742 61.5958 9.96471 61.8126 10.4039 62.0096C10.8431 62.2066 11.2933 62.384 11.7636 62.5435C12.234 62.703 12.724 62.8449 13.2419 62.9708C13.7598 63.0967 14.3081 63.2072 14.8883 63.3036C15.4686 63.3999 16.0888 63.4825 16.7514 63.5537C17.4141 63.6248 18.121 63.6837 18.8807 63.7329C19.6403 63.7821 20.4522 63.8215 21.3247 63.853C22.6723 63.9018 24.7124 63.9303 27.0649 63.9412L34.6808 63.9258L41.8925 63.8247L44.6346 63.7477L46.4211 63.6558C46.8045 63.6246 47.1797 63.5877 47.5418 63.5445C47.9038 63.5012 48.261 63.4518 48.6087 63.3956C48.9565 63.3394 49.2964 63.2767 49.6304 63.207C49.9606 63.1382 50.289 63.0615 50.6154 62.9767C50.9385 62.8947 51.2571 62.8014 51.5725 62.7024C51.8878 62.6034 52.1999 62.4963 52.5101 62.3815C52.8221 62.266 53.1312 62.1429 53.4372 62.0123C53.7454 61.881 54.0531 61.7408 54.3619 61.592C54.8361 61.3635 55.2179 61.1731 55.5531 60.9871C55.8685 60.8141 56.1721 60.6207 56.4622 60.4081C56.7485 60.1973 57.0331 59.9574 57.3611 59.6552C57.6892 59.353 58.0609 58.9889 58.5212 58.5284C58.9257 58.1241 59.2669 57.7726 59.5611 57.453C59.8553 57.1333 60.1032 56.8457 60.3205 56.5685C60.5277 56.3055 60.7207 56.0316 60.8987 55.748C61.0724 55.4712 61.2323 55.1837 61.3953 54.8649C61.6405 54.3851 61.8587 53.9408 62.0541 53.5121C62.2438 53.0989 62.4171 52.6784 62.5736 52.2516C62.7278 51.8281 62.8613 51.3973 62.9736 50.9609C63.0893 50.5119 63.1889 50.0378 63.275 49.5179C63.3611 48.9979 63.4339 48.432 63.4971 47.8001C63.5602 47.1682 63.6139 46.4699 63.6611 45.6852L63.7862 43.0512L63.8936 39.7754L63.9703 36.1259L63.9998 32.3098L63.9313 24.8149L63.8397 21.458L63.7146 18.5756L63.5588 16.3285C63.5022 15.7031 63.4411 15.2107 63.3763 14.8777C63.3046 14.5098 63.2245 14.1436 63.136 13.7793C63.0499 13.4249 62.9552 13.0726 62.852 12.7228C62.7515 12.382 62.6422 12.0438 62.5244 11.7085C62.4079 11.3774 62.2845 11.0532 62.1553 10.7361C62.0262 10.4189 61.8863 10.1091 61.7408 9.80584C61.5952 9.5026 61.4427 9.20674 61.2825 8.91764C61.1224 8.62855 60.9555 8.34663 60.781 8.07168C60.6065 7.79674 60.4249 7.52876 60.2356 7.26796C60.0475 7.008 59.8512 6.75398 59.6472 6.50627C59.4442 6.25993 59.2335 6.02006 59.0153 5.78703C58.7974 5.55428 58.5723 5.3285 58.3401 5.11001C58.1078 4.89145 57.8686 4.67986 57.6217 4.47524C57.3739 4.26994 57.1199 4.0724 56.8598 3.8829C56.597 3.69147 56.3284 3.50809 56.0544 3.33301C55.7767 3.15545 55.4938 2.98615 55.206 2.82535C54.9132 2.66186 54.6158 2.50679 54.3141 2.36034C53.8135 2.11697 53.3505 1.90108 52.8959 1.70958C52.4491 1.51952 51.9936 1.35073 51.5308 1.20376C51.0654 1.05717 50.5809 0.931483 50.0479 0.823022C49.5148 0.71456 48.9335 0.624142 48.2756 0.547255C47.6176 0.470368 46.883 0.408245 46.0428 0.356578C45.2026 0.30491 44.2576 0.26431 43.1785 0.231505L39.5113 0.149494L34.87 0.0947513L28.9266 0.0582539L28.9245 0.0578472ZM32.0113 5.69661L40.5822 5.74541L43.8155 5.80773C44.706 5.83275 45.3854 5.86207 45.7838 5.8959C46.3026 5.93957 46.7967 5.99431 47.2693 6.05992C47.7228 6.12255 48.1742 6.20044 48.6225 6.29345C49.053 6.38366 49.4637 6.48618 49.8568 6.60182C50.2498 6.71746 50.6252 6.84703 50.9855 6.99035C51.3457 7.13367 51.6902 7.29134 52.0217 7.46398C52.3506 7.63531 52.6702 7.82385 52.9792 8.02883C53.2867 8.23284 53.5832 8.45263 53.8711 8.68944C54.1589 8.92625 54.438 9.18008 54.7105 9.45154C54.9981 9.73797 55.2634 10.0297 55.508 10.3307C55.7517 10.6298 55.9772 10.9433 56.1832 11.2696C56.3916 11.6004 56.5793 11.9438 56.7454 12.2978C56.9152 12.6586 57.0677 13.04 57.2047 13.4453C57.3416 13.8507 57.4636 14.2815 57.5717 14.7418C57.6848 15.2298 57.7796 15.7218 57.8558 16.217C57.9379 16.7418 58.008 17.3016 58.0674 17.9009C58.1269 18.5002 58.1761 19.1393 58.2167 19.823C58.2491 20.3715 58.2774 21.0953 58.3014 21.95L58.3615 24.8645L58.4074 32.0037L58.3551 39.1361L58.2924 42.0422L58.206 44.1559C58.1462 45.1456 58.083 45.9776 58.0076 46.7018C57.9696 47.0639 57.9286 47.3989 57.8831 47.7132C57.8405 48.0101 57.79 48.3059 57.7316 48.6002C57.6783 48.8686 57.6164 49.1353 57.546 49.3998C57.4786 49.6522 57.4028 49.9023 57.3187 50.1496C57.2339 50.3981 57.1416 50.6439 57.0421 50.8869C56.9368 51.1434 56.8257 51.3975 56.7089 51.649C56.6049 51.8735 56.4957 52.0918 56.38 52.3045C56.2657 52.5149 56.1442 52.7214 56.0159 52.9236C55.8888 53.124 55.7555 53.3185 55.6161 53.507C55.4774 53.6948 55.332 53.8775 55.1802 54.0548C55.0288 54.2314 54.871 54.4023 54.7072 54.5674C54.5432 54.7324 54.373 54.8917 54.1967 55.0455C54.0203 55.1993 53.8374 55.3469 53.6482 55.4892C53.459 55.6315 53.2631 55.768 53.0608 55.8989C52.8584 56.0297 52.6497 56.1551 52.4342 56.2749C52.2187 56.3946 51.9965 56.509 51.7679 56.6179C51.5353 56.7284 51.2995 56.8319 51.0607 56.9283C50.8139 57.0279 50.5643 57.1205 50.3123 57.2061C49.7998 57.3808 49.2591 57.5342 48.6899 57.6664C48.0967 57.8034 47.4981 57.9155 46.8955 58.0023C46.6638 58.0361 46.1314 58.0679 45.3686 58.0974L42.4621 58.1782L34.2219 58.2852L25.5971 58.2987L22.21 58.2627L20.0106 58.1942L18.3888 58.0802C17.8853 58.0377 17.417 57.9906 16.9782 57.9371C16.5394 57.8836 16.1308 57.8239 15.7464 57.7566C15.3821 57.6936 15.02 57.6184 14.6607 57.5311C14.3332 57.4514 14.009 57.3585 13.6889 57.2527C13.3803 57.1502 13.0853 57.0374 12.7982 56.9133C12.5112 56.7893 12.2324 56.6534 11.9562 56.5049C11.68 56.3565 11.4067 56.1953 11.1303 56.0196C10.9218 55.8872 10.7202 55.7531 10.5263 55.611C10.3323 55.4689 10.1449 55.3272 9.9645 55.1788C9.78407 55.0303 9.61082 54.8774 9.44372 54.7199C9.27773 54.5632 9.11743 54.4006 8.96313 54.2324C8.80936 54.0646 8.66235 53.892 8.52129 53.7132C8.37968 53.5337 8.24475 53.3491 8.11676 53.1596C7.98688 52.9673 7.86399 52.7704 7.74832 52.5691C7.63145 52.3662 7.52033 52.1562 7.41474 51.9397C7.30738 51.7191 7.2072 51.495 7.11437 51.2678C7.02005 51.0365 6.93066 50.7979 6.8466 50.5514C6.67847 50.0583 6.53085 49.5335 6.4025 48.9737C6.27415 48.414 6.16466 47.8194 6.07199 47.1859C5.97931 46.5523 5.90468 45.8806 5.84522 45.1667C5.80135 44.6408 5.76649 43.8217 5.73984 42.7884L5.68407 39.1132L5.70457 29.7443L5.86593 20.7918L5.98895 17.6376L6.05866 16.595C6.08285 16.3166 6.10787 16.1103 6.1335 15.9865C6.21797 15.5791 6.30306 15.2 6.39102 14.8451C6.47318 14.5103 6.56459 14.1778 6.66514 13.848C6.76069 13.5368 6.86136 13.2452 6.969 12.9691C7.07279 12.7015 7.18848 12.4388 7.31571 12.1815C7.43996 11.9314 7.57343 11.6919 7.71839 11.4588C7.86334 11.2257 8.01978 10.9995 8.19037 10.7746C8.36095 10.5497 8.54466 10.3276 8.74457 10.1025C8.94447 9.87739 9.16037 9.65001 9.39452 9.41566C9.6674 9.14123 9.95154 8.87822 10.2462 8.62732C10.5245 8.39061 10.8146 8.16827 11.1155 7.96117C11.4114 7.75614 11.7149 7.57367 12.0308 7.40595C12.3468 7.23823 12.6752 7.08672 13.0207 6.95037C13.3662 6.81403 13.7291 6.69203 14.1135 6.58132C14.5174 6.46803 14.9257 6.37138 15.3375 6.29161C15.7706 6.20673 16.2305 6.13271 16.7215 6.06812C17.2126 6.00354 17.735 5.94777 18.2935 5.89938C18.683 5.86576 19.3543 5.83582 20.2382 5.8106L23.4551 5.74704L32.0127 5.69476L32.0113 5.69661Z" fill="url(#paint2_radial_148_1587)"/>
</g>
<defs>
<radialGradient id="paint0_radial_148_1587" cx="0" cy="0" r="1" gradientUnits="userSpaceOnUse" gradientTransform="translate(10.1968 68.5981) rotate(-9.53101) scale(135.261 82.1029)">
<stop stop-color="#FED576"/>
<stop offset="0.263" stop-color="#F47133"/>
<stop offset="0.609" stop-color="#BC3081"/>
<stop offset="1" stop-color="#4C63D2"/>
</radialGradient>
<radialGradient id="paint1_radial_148_1587" cx="0" cy="0" r="1" gradientUnits="userSpaceOnUse" gradientTransform="translate(10.1968 68.5981) rotate(-9.53101) scale(135.261 82.1029)">
<stop stop-color="#FED576"/>
<stop offset="0.263" stop-color="#F47133"/>
<stop offset="0.609" stop-color="#BC3081"/>
<stop offset="1" stop-color="#4C63D2"/>
</radialGradient>
<radialGradient id="paint2_radial_148_1587" cx="0" cy="0" r="1" gradientUnits="userSpaceOnUse" gradientTransform="translate(10.1968 68.5981) rotate(-9.53101) scale(135.261 82.1029)">
<stop stop-color="#FED576"/>
<stop offset="0.263" stop-color="#F47133"/>
<stop offset="0.609" stop-color="#BC3081"/>
<stop offset="1" stop-color="#4C63D2"/>
</radialGradient>
<clipPath id="clip0_148_1587">
<rect width="64" height="64" fill="white"/>
</clipPath>
</defs>
</svg>
