<svg width="313" height="236" viewBox="0 0 313 236" fill="none" xmlns="http://www.w3.org/2000/svg">
<g clip-path="url(#clip0_148_2030)">
<path d="M144.042 50.3464H66.9888C66.6105 50.346 66.2478 50.1954 65.9803 49.9277C65.7128 49.66 65.5623 49.2971 65.5619 48.9185V29.7911C65.5623 29.4125 65.7128 29.0496 65.9803 28.7819C66.2478 28.5142 66.6105 28.3636 66.9888 28.3632H144.042C144.421 28.3636 144.783 28.5142 145.051 28.7819C145.318 29.0496 145.469 29.4125 145.469 29.7911V48.9185C145.469 49.2971 145.318 49.66 145.051 49.9277C144.783 50.1954 144.421 50.346 144.042 50.3464ZM66.9888 28.9344C66.7618 28.9346 66.5442 29.0249 66.3837 29.1856C66.2232 29.3462 66.1329 29.564 66.1327 29.7911V48.9185C66.1329 49.1456 66.2232 49.3634 66.3837 49.524C66.5442 49.6846 66.7618 49.775 66.9888 49.7752H144.042C144.269 49.775 144.487 49.6846 144.647 49.524C144.808 49.3634 144.898 49.1456 144.899 48.9185V29.7911C144.898 29.564 144.808 29.3462 144.647 29.1856C144.487 29.025 144.269 28.9346 144.042 28.9344L66.9888 28.9344Z" fill="#2F2E41"/>
<path d="M78.9614 44.4375C82.1716 44.4375 84.7739 41.8333 84.7739 38.6209C84.7739 35.4084 82.1716 32.8042 78.9614 32.8042C75.7513 32.8042 73.1489 35.4084 73.1489 38.6209C73.1489 41.8333 75.7513 44.4375 78.9614 44.4375Z" fill="url(#paint0_linear_148_2030)"/>
<path d="M92.3857 34.7429C92.1288 34.7429 91.8824 34.845 91.7007 35.0268C91.5191 35.2086 91.417 35.4552 91.417 35.7123C91.417 35.9694 91.5191 36.216 91.7007 36.3978C91.8824 36.5796 92.1288 36.6818 92.3857 36.6818H138.055C138.312 36.6818 138.559 36.5796 138.74 36.3978C138.922 36.216 139.024 35.9694 139.024 35.7123C139.024 35.4552 138.922 35.2086 138.74 35.0268C138.559 34.845 138.312 34.7429 138.055 34.7429H92.3857Z" fill="#E6E6E6"/>
<path d="M92.3857 40.56C92.1288 40.56 91.8824 40.6621 91.7007 40.8439C91.5191 41.0257 91.417 41.2723 91.417 41.5294C91.417 41.7865 91.5191 42.0331 91.7007 42.2149C91.8824 42.3967 92.1288 42.4989 92.3857 42.4989H112.038C112.165 42.4991 112.291 42.4742 112.409 42.4256C112.527 42.3769 112.634 42.3056 112.724 42.2155C112.814 42.1255 112.885 42.0185 112.934 41.9008C112.983 41.7831 113.008 41.6569 113.008 41.5294C113.008 41.402 112.983 41.2757 112.934 41.158C112.885 41.0403 112.814 40.9333 112.724 40.8433C112.634 40.7532 112.527 40.6819 112.409 40.6333C112.291 40.5846 112.165 40.5597 112.038 40.56H92.3857Z" fill="#E6E6E6"/>
<path d="M110.59 118.526H76.3443C75.966 118.526 75.6033 118.375 75.3358 118.108C75.0683 117.84 74.9178 117.477 74.9174 117.098V81.4071C74.9178 81.0285 75.0683 80.6655 75.3358 80.3979C75.6033 80.1302 75.966 79.9796 76.3443 79.9791H110.59C110.969 79.9796 111.331 80.1302 111.599 80.3979C111.866 80.6655 112.017 81.0285 112.017 81.4071V117.098C112.017 117.477 111.866 117.84 111.599 118.108C111.331 118.375 110.969 118.526 110.59 118.526ZM76.3443 80.5503C76.1173 80.5505 75.8997 80.6409 75.7392 80.8015C75.5787 80.9621 75.4884 81.1799 75.4881 81.4071V117.098C75.4884 117.326 75.5787 117.543 75.7392 117.704C75.8997 117.865 76.1173 117.955 76.3443 117.955H110.59C110.817 117.955 111.035 117.865 111.196 117.704C111.356 117.543 111.446 117.326 111.447 117.098V81.4071C111.446 81.1799 111.356 80.9621 111.196 80.8015C111.035 80.6409 110.817 80.5505 110.59 80.5503H76.3443Z" fill="#2F2E41"/>
<path d="M83.6415 87.3395C83.3846 87.3395 83.1382 87.4416 82.9565 87.6234C82.7748 87.8052 82.6727 88.0518 82.6727 88.3089C82.6727 88.566 82.7748 88.8126 82.9565 88.9944C83.1382 89.1762 83.3846 89.2784 83.6415 89.2784H103.293C103.55 89.2784 103.797 89.1762 103.978 88.9944C104.16 88.8126 104.262 88.566 104.262 88.3089C104.262 88.0518 104.16 87.8052 103.978 87.6234C103.797 87.4416 103.55 87.3395 103.293 87.3395H83.6415Z" fill="#E6E6E6"/>
<path d="M83.6415 93.0512C83.5142 93.051 83.388 93.0759 83.2703 93.1245C83.1525 93.1731 83.0455 93.2445 82.9554 93.3345C82.8652 93.4246 82.7937 93.5315 82.7449 93.6493C82.6961 93.767 82.671 93.8932 82.671 94.0206C82.671 94.1481 82.6961 94.2743 82.7449 94.392C82.7937 94.5098 82.8652 94.6167 82.9554 94.7068C83.0455 94.7968 83.1525 94.8682 83.2703 94.9168C83.388 94.9654 83.5142 94.9903 83.6415 94.9901H103.293C103.55 94.9901 103.797 94.888 103.978 94.7062C104.16 94.5243 104.262 94.2778 104.262 94.0206C104.262 93.7635 104.16 93.517 103.978 93.3352C103.797 93.1533 103.55 93.0512 103.293 93.0512H83.6415Z" fill="#E6E6E6"/>
<path d="M93.4678 111.166C92.2618 111.166 91.0828 110.809 90.0801 110.138C89.0773 109.467 88.2957 108.514 87.8342 107.399C87.3726 106.284 87.2519 105.057 87.4872 103.874C87.7225 102.69 88.3032 101.603 89.156 100.749C90.0088 99.8959 91.0953 99.3147 92.2782 99.0793C93.4611 98.8438 94.6871 98.9647 95.8014 99.4265C96.9156 99.8884 97.868 100.671 98.538 101.674C99.208 102.678 99.5657 103.857 99.5657 105.064C99.5638 106.682 98.9208 108.233 97.7776 109.377C96.6345 110.521 95.0845 111.165 93.4678 111.166Z" fill="url(#paint1_linear_148_2030)"/>
<path d="M166.691 0H200.937C201.316 0.000444532 201.678 0.15103 201.946 0.418723C202.213 0.686417 202.364 1.04936 202.364 1.42794V37.1193C202.364 37.4979 202.213 37.8609 201.946 38.1286C201.678 38.3962 201.316 38.5468 200.937 38.5473H166.691C166.313 38.5468 165.95 38.3962 165.683 38.1286C165.415 37.8609 165.265 37.4979 165.264 37.1193V1.42794C165.265 1.04936 165.415 0.686417 165.683 0.418723C165.95 0.15103 166.313 0.000444532 166.691 0ZM200.937 37.9761C201.164 37.9759 201.382 37.8855 201.543 37.7249C201.703 37.5643 201.793 37.3465 201.794 37.1193V1.42794C201.793 1.20078 201.703 0.983007 201.543 0.822387C201.382 0.661767 201.164 0.571422 200.937 0.571173H166.691C166.464 0.571422 166.247 0.661767 166.086 0.822387C165.926 0.983007 165.835 1.20078 165.835 1.42794V37.1193C165.835 37.3465 165.926 37.5643 166.086 37.7249C166.247 37.8855 166.464 37.9759 166.691 37.9761H200.937Z" fill="#2F2E41"/>
<path d="M193.64 31.187C193.897 31.187 194.144 31.0848 194.325 30.903C194.507 30.7212 194.609 30.4746 194.609 30.2175C194.609 29.9604 194.507 29.7138 194.325 29.532C194.144 29.3502 193.897 29.2481 193.64 29.2481H173.989C173.732 29.2481 173.485 29.3502 173.304 29.532C173.122 29.7138 173.02 29.9604 173.02 30.2175C173.02 30.4746 173.122 30.7212 173.304 30.903C173.485 31.0848 173.732 31.187 173.989 31.187H193.64Z" fill="#E6E6E6"/>
<path d="M193.64 25.4752C193.897 25.4752 194.144 25.3731 194.325 25.1913C194.507 25.0095 194.609 24.7629 194.609 24.5058C194.609 24.2487 194.507 24.0021 194.325 23.8203C194.144 23.6385 193.897 23.5363 193.64 23.5363H173.989C173.732 23.5363 173.485 23.6385 173.304 23.8203C173.122 24.0021 173.02 24.2487 173.02 24.5058C173.02 24.7629 173.122 25.0095 173.304 25.1913C173.485 25.3731 173.732 25.4752 173.989 25.4752H193.64Z" fill="#E6E6E6"/>
<path d="M183.814 7.36032C185.02 7.36032 186.199 7.71821 187.202 8.38873C188.205 9.05924 188.987 10.0123 189.448 11.1273C189.91 12.2423 190.03 13.4693 189.795 14.653C189.56 15.8367 188.979 16.924 188.126 17.7774C187.273 18.6308 186.187 19.212 185.004 19.4475C183.821 19.6829 182.595 19.5621 181.481 19.1002C180.367 18.6383 179.414 17.8562 178.744 16.8527C178.074 15.8492 177.717 14.6694 177.717 13.4625C177.718 11.8447 178.361 10.2936 179.505 9.14963C180.648 8.00565 182.198 7.36215 183.814 7.36032Z" fill="url(#paint2_linear_148_2030)"/>
<path d="M66.0023 73.8401C72.0624 69.1432 79.1425 65.9402 86.6695 64.4906C94.2564 63.0439 102.08 63.4462 109.479 65.6635C113.198 66.7717 116.771 68.3211 120.123 70.2788C123.537 72.2765 126.623 74.7357 129.592 77.3394C132.599 79.9771 135.508 82.7321 138.647 85.2153C147.611 92.3851 158.738 96.3024 170.213 96.3275C171.161 96.329 172.108 96.3028 173.055 96.2491C173.568 96.2208 173.572 95.4182 173.055 95.4466C161.358 96.0912 149.808 92.5983 140.425 85.5795C137.171 83.1445 134.2 80.3604 131.166 77.6625C128.226 75.0468 125.206 72.5024 121.87 70.401C113.709 65.256 104.215 62.6297 94.5724 62.8497C84.9297 63.0696 75.5651 66.1261 67.6471 71.6378C66.8942 72.1616 66.1589 72.7091 65.4353 73.2727C65.0285 73.5895 65.5997 74.1537 66.0023 73.8401Z" fill="#2F2E41"/>
<path d="M65.5763 77.719C67.8778 77.719 69.7436 75.8519 69.7436 73.5487C69.7436 71.2455 67.8778 69.3784 65.5763 69.3784C63.2747 69.3784 61.4089 71.2455 61.4089 73.5487C61.4089 75.8519 63.2747 77.719 65.5763 77.719Z" fill="#2F2E41"/>
<path d="M220.61 133.089C222.911 133.089 224.777 131.222 224.777 128.919C224.777 126.616 222.911 124.749 220.61 124.749C218.308 124.749 216.442 126.616 216.442 128.919C216.442 131.222 218.308 133.089 220.61 133.089Z" fill="#2F2E41"/>
<path d="M242.441 105.163H174.443C174.065 105.162 173.702 105.012 173.435 104.744C173.167 104.476 173.017 104.113 173.016 103.735V68.3288C173.017 67.9503 173.167 67.5873 173.435 67.3196C173.702 67.0519 174.065 66.9013 174.443 66.9009H242.441C242.82 66.9013 243.182 67.0519 243.45 67.3196C243.717 67.5873 243.868 67.9502 243.868 68.3288V103.735C243.868 104.113 243.717 104.476 243.45 104.744C243.182 105.012 242.82 105.162 242.441 105.163ZM174.443 67.4721C174.216 67.4723 173.999 67.5627 173.838 67.7233C173.678 67.8839 173.587 68.1017 173.587 68.3288V103.735C173.587 103.962 173.678 104.18 173.838 104.34C173.999 104.501 174.216 104.591 174.443 104.591H242.441C242.668 104.591 242.886 104.501 243.047 104.34C243.207 104.18 243.297 103.962 243.298 103.735V68.3288C243.297 68.1017 243.207 67.8839 243.047 67.7233C242.886 67.5627 242.668 67.4723 242.441 67.4721H174.443Z" fill="#2F2E41"/>
<path d="M185.845 85.2601C189.055 85.2601 191.657 82.6559 191.657 79.4435C191.657 76.231 189.055 73.6268 185.845 73.6268C182.635 73.6268 180.032 76.231 180.032 79.4435C180.032 82.6559 182.635 85.2601 185.845 85.2601Z" fill="url(#paint3_linear_148_2030)"/>
<path d="M199.269 75.5658C199.141 75.5656 199.015 75.5905 198.898 75.6391C198.78 75.6877 198.673 75.7591 198.583 75.8491C198.493 75.9392 198.421 76.0461 198.372 76.1638C198.323 76.2816 198.298 76.4078 198.298 76.5352C198.298 76.6627 198.323 76.7889 198.372 76.9066C198.421 77.0244 198.493 77.1313 198.583 77.2214C198.673 77.3114 198.78 77.3828 198.898 77.4314C199.015 77.48 199.141 77.5049 199.269 77.5047H235.883C236.14 77.5047 236.387 77.4025 236.568 77.2207C236.75 77.0389 236.852 76.7923 236.852 76.5352C236.852 76.2781 236.75 76.0315 236.568 75.8497C236.387 75.6679 236.14 75.5658 235.883 75.5658H199.269Z" fill="#E6E6E6"/>
<path d="M199.269 81.3823C199.141 81.3821 199.015 81.407 198.898 81.4556C198.78 81.5042 198.673 81.5756 198.583 81.6656C198.493 81.7557 198.421 81.8626 198.372 81.9804C198.323 82.0981 198.298 82.2243 198.298 82.3518C198.298 82.4792 198.323 82.6054 198.372 82.7232C198.421 82.8409 198.493 82.9478 198.583 83.0379C198.673 83.1279 198.78 83.1993 198.898 83.2479C199.015 83.2965 199.141 83.3214 199.269 83.3212H218.921C219.178 83.3212 219.424 83.2191 219.606 83.0373C219.787 82.8555 219.889 82.6089 219.889 82.3518C219.889 82.0947 219.787 81.8481 219.606 81.6663C219.424 81.4845 219.178 81.3823 218.921 81.3823H199.269Z" fill="#E6E6E6"/>
<path d="M181.387 90.6815C180.65 90.6815 180.05 91.1165 180.05 91.651C180.05 92.1854 180.65 92.6204 181.387 92.6204H235.341C236.078 92.6204 236.678 92.1854 236.678 91.651C236.678 91.1165 236.078 90.6815 235.341 90.6815H181.387Z" fill="#E6E6E6"/>
<path d="M181.387 96.4984C180.65 96.4984 180.05 96.9333 180.05 97.4678C180.05 98.0023 180.65 98.4372 181.387 98.4372H235.341C236.078 98.4372 236.678 98.0023 236.678 97.4678C236.678 96.9333 236.078 96.4984 235.341 96.4984H181.387Z" fill="#E6E6E6"/>
<path d="M168.977 132.801C172.813 131.136 177.096 132.588 180.712 134.123C182.574 134.913 184.417 135.757 186.344 136.381C187.965 136.905 189.625 137.299 191.309 137.559C194.688 138.077 198.124 138.098 201.509 137.621C204.911 137.146 208.227 136.182 211.353 134.757C214.461 133.347 217.335 131.467 219.872 129.183C220.195 128.891 220.511 128.593 220.822 128.287C221.191 127.925 220.624 127.358 220.255 127.72C217.811 130.104 215.006 132.085 211.944 133.591C208.894 135.092 205.641 136.138 202.288 136.695C198.924 137.263 195.494 137.322 192.113 136.871C190.426 136.643 188.76 136.28 187.131 135.787C185.26 135.178 183.424 134.465 181.633 133.65C177.983 132.082 173.928 130.546 169.918 131.628C169.458 131.755 169.009 131.915 168.572 132.108C168.1 132.313 168.508 133.005 168.977 132.801V132.801Z" fill="#2F2E41"/>
<path d="M167.495 142.643H135.369L142.929 129.539C143.065 129.304 143.26 129.109 143.494 128.973C143.729 128.838 143.995 128.766 144.266 128.766C144.537 128.766 144.804 128.838 145.038 128.973C145.273 129.109 145.468 129.304 145.603 129.539L148.833 135.137L154.325 125.619C154.494 125.324 154.738 125.08 155.032 124.911C155.326 124.741 155.659 124.651 155.999 124.651C156.338 124.651 156.671 124.741 156.965 124.911C157.259 125.08 157.503 125.324 157.673 125.619L167.495 142.643Z" fill="url(#paint4_linear_148_2030)"/>
<path d="M167.525 142.64H133.279C132.901 142.64 132.538 142.489 132.271 142.221C132.003 141.954 131.853 141.591 131.852 141.212V122.085C131.853 121.706 132.003 121.343 132.271 121.076C132.538 120.808 132.901 120.657 133.279 120.657H167.525C167.903 120.657 168.266 120.808 168.534 121.076C168.801 121.343 168.952 121.706 168.952 122.085V141.212C168.952 141.591 168.801 141.954 168.534 142.221C168.266 142.489 167.903 142.64 167.525 142.64ZM133.279 121.228C133.052 121.228 132.834 121.319 132.674 121.479C132.513 121.64 132.423 121.858 132.423 122.085V141.212C132.423 141.439 132.513 141.657 132.674 141.818C132.834 141.978 133.052 142.069 133.279 142.069H167.525C167.752 142.069 167.97 141.978 168.13 141.818C168.291 141.657 168.381 141.439 168.381 141.212V122.085C168.381 121.858 168.291 121.64 168.13 121.479C167.97 121.319 167.752 121.228 167.525 121.228H133.279Z" fill="#2F2E41"/>
<path d="M234.694 125.806L228.59 128.908C226.411 130.015 224.309 129.826 223.503 127.517C223.312 126.968 223.241 126.383 223.296 125.804C223.351 125.225 223.53 124.664 223.822 124.161C224.113 123.657 224.51 123.223 224.985 122.887C225.46 122.551 226.002 122.322 226.573 122.215L232.375 121.132L257.222 112.882L272.273 102.202L277.791 110.999L260.399 120.39L234.694 125.806Z" fill="#FFB8B8"/>
<path d="M263.19 228.769L258.519 227.99L259.038 219.162H263.968L263.19 228.769Z" fill="#FFB8B8"/>
<path d="M308.518 220.147L303.998 221.558L300.486 213.443L304.886 211.22L308.518 220.147Z" fill="#FFB8B8"/>
<path d="M306.001 212.411L300.293 214.748L273.049 178.917L264.487 220.98L258.779 219.941C255.117 183.677 252.131 146.688 255.795 129.194L276.941 128.285L286.541 158.924L291.212 179.696L306.001 212.411Z" fill="#2F2E41"/>
<path d="M262.933 235.909C262.079 236.092 261.189 235.997 260.392 235.639L257.618 234.389C255.292 234.27 253.708 234.734 252.412 233.042C252.047 232.559 251.818 231.986 251.748 231.384C251.678 230.782 251.771 230.172 252.016 229.618C252.259 229.061 252.646 228.58 253.137 228.223C253.627 227.866 254.204 227.645 254.807 227.585L258.618 225.182L258.818 226.983C260.56 227.971 262.628 227.544 264.819 226.583L266.015 230.772C266.169 231.312 266.211 231.878 266.137 232.435C266.064 232.992 265.877 233.528 265.588 234.01C265.299 234.492 264.914 234.909 264.457 235.235C264.001 235.562 263.482 235.791 262.933 235.909Z" fill="#2F2E41"/>
<path d="M310.368 227.316C309.62 227.767 308.747 227.966 307.877 227.886L304.848 227.606C302.609 228.249 301.261 229.202 299.487 228.023C298.985 227.685 298.582 227.218 298.321 226.671C298.059 226.124 297.949 225.517 298.001 224.913C298.051 224.308 298.26 223.727 298.608 223.23C298.956 222.732 299.43 222.337 299.982 222.084L302.806 218.573L303.58 220.211C305.547 220.579 307.365 219.504 309.125 217.883L311.616 221.456C311.937 221.917 312.16 222.439 312.271 222.989C312.383 223.54 312.38 224.108 312.263 224.657C312.146 225.207 311.917 225.726 311.591 226.183C311.265 226.641 310.849 227.026 310.368 227.316Z" fill="#2F2E41"/>
<path d="M269.157 91.4147C274.316 91.4147 278.498 87.2298 278.498 82.0674C278.498 76.9049 274.316 72.72 269.157 72.72C263.998 72.72 259.816 76.9049 259.816 82.0674C259.816 87.2298 263.998 91.4147 269.157 91.4147Z" fill="#FFB8B8"/>
<path d="M280.574 101.801L268.379 99.2042L266.822 89.0779L275.384 87.2604L280.574 101.801Z" fill="#FFB8B8"/>
<path d="M277.201 129.583H255.406L260.318 117.24C259.961 112.993 261.76 109.87 264.335 107.15L267.601 98.9446C272.878 95.469 276.856 95.7286 281.093 100.243C286.116 107.36 282.639 118.058 277.201 129.583Z" fill="url(#paint5_linear_148_2030)"/>
<path d="M267.341 155.808L266.721 162.631C266.5 165.066 265.222 166.748 262.84 166.203C262.273 166.073 261.741 165.822 261.28 165.468C260.819 165.113 260.44 164.663 260.168 164.148C259.897 163.634 259.741 163.066 259.709 162.485C259.677 161.904 259.771 161.323 259.985 160.782L262.152 155.288L268.379 129.843L267.341 111.408H277.72L276.422 131.141L267.341 155.808Z" fill="#FFB8B8"/>
<path d="M278.498 111.927H266.562L267.399 104.136C267.454 102.788 268.011 101.51 268.959 100.552C269.908 99.5937 271.18 99.0251 272.526 98.9578C273.239 98.9221 273.953 99.0283 274.625 99.2703C275.297 99.5123 275.914 99.8853 276.441 100.368C276.968 100.85 277.394 101.432 277.695 102.08C277.996 102.729 278.165 103.43 278.193 104.144L278.498 111.927Z" fill="url(#paint6_linear_148_2030)"/>
<path d="M280.718 72.4562C282.657 72.4562 284.229 70.8832 284.229 68.9428C284.229 67.0024 282.657 65.4294 280.718 65.4294C278.779 65.4294 277.207 67.0024 277.207 68.9428C277.207 70.8832 278.779 72.4562 280.718 72.4562Z" fill="#2F2E41"/>
<path d="M277.1 68.0826C277.158 67.1912 277.553 66.3553 278.205 65.7452C278.857 65.1351 279.716 64.7967 280.609 64.7988C280.537 64.7896 280.465 64.7784 280.391 64.7737C279.462 64.7144 278.548 65.0268 277.849 65.642C277.15 66.2572 276.724 67.125 276.664 68.0545C276.604 68.9841 276.916 69.8993 277.53 70.5991C278.145 71.2988 279.012 71.7257 279.94 71.786C280.014 71.7908 280.087 71.7889 280.16 71.7891C279.274 71.6768 278.465 71.231 277.896 70.5423C277.328 69.8537 277.043 68.9741 277.1 68.0826Z" fill="#2F2E41"/>
<path d="M277.08 69.5829C273.949 66.9835 264.968 70.2872 264.388 72.0348C260.154 72.6123 256.948 75.0844 256.948 79.4802V79.4802C259.466 80.5122 262.329 80.385 265.424 79.4802C270.357 83.5036 270.695 88.5616 267.695 94.371L271.386 94.4448L275.962 87.7528L276.181 94.5408L284.642 94.371V84.6434C284.669 81.4091 283.925 78.2149 282.472 75.3259C281.153 72.7625 279.107 71.2657 277.08 69.5829Z" fill="#2F2E41"/>
<path d="M269.201 86.7693C270.128 86.7693 270.88 85.7162 270.88 84.4171C270.88 83.118 270.128 82.0649 269.201 82.0649C268.274 82.0649 267.522 83.118 267.522 84.4171C267.522 85.7162 268.274 86.7693 269.201 86.7693Z" fill="#FFB8B8"/>
<path d="M57.9524 87.4018C57.9524 87.4018 58.963 69.8963 64.2098 73.874C69.4565 77.8517 61.9185 89.0253 61.9185 89.0253L57.9524 87.4018Z" fill="#FFB9B9"/>
<path d="M38.432 139.328C38.432 139.328 50.0869 152.421 43.5662 153.321C37.0455 154.221 34.4805 140.986 34.4805 140.986L38.432 139.328Z" fill="#FFB9B9"/>
<path d="M23.2236 77.3498C24.6864 77.735 26.0028 78.5441 27.0076 79.6756C28.0124 80.8071 28.6607 82.2104 28.8712 83.7093L32.5785 110.115L37.7756 131.179C37.7756 131.179 40.3742 133.519 39.3348 134.819C38.2953 136.12 40.634 141.58 40.634 141.58L34.1376 143.661C34.1376 143.661 33.358 138.2 32.0588 137.94C30.9169 137.711 18.1347 103.541 15.0536 95.263C14.6288 94.1216 14.3884 93.4724 14.3884 93.4724C14.3884 93.4724 14.9082 76.0496 23.2236 77.3498Z" fill="url(#paint7_linear_148_2030)"/>
<path d="M24.4104 215.054L28.4007 222.13C31.4908 228.732 28.7448 229.931 21.1683 226.659L19.4413 218.303L24.4104 215.054Z" fill="#FFB9B9"/>
<path d="M26.4237 224.459C26.4237 224.459 28.318 221.372 29.0031 221.889C29.6882 222.406 32.5141 224.644 32.5141 224.644L36.195 228.172C36.195 228.172 48.631 229.488 40.7289 233.848C32.8268 238.209 28.4598 234.593 28.4598 234.593C28.4598 234.593 17.3921 235.169 17.5706 232.079C17.7491 228.989 21.3186 224.1 21.3186 224.1C21.3186 224.1 25.8172 227.119 26.4237 224.459Z" fill="#2F2E41"/>
<path d="M6.70337 135.066L10.4443 180.363C10.4443 180.363 10.569 207.442 14.5593 212.683C18.5496 217.924 18.6742 220.544 18.6742 220.544L26.9042 216.302C26.9042 216.302 22.6645 209.232 23.5374 208.15C24.0755 207.463 24.4584 206.668 24.6597 205.82L22.4151 177.868L26.6548 129.201L6.70337 135.066Z" fill="#2F2E41"/>
<path d="M16.9283 215.054L13.4368 224.288L5.51855 220.975L9.69598 214.055L16.9283 215.054Z" fill="#FFB9B9"/>
<path d="M11.1036 221.178C11.1036 221.178 14.0733 219.32 14.4446 220.063C14.8158 220.806 16.3007 223.964 16.3007 223.964L17.9711 228.607C17.9711 228.607 28.1797 235.108 19.456 235.48C10.7324 235.851 8.50506 230.836 8.50506 230.836C8.50506 230.836 -1.33224 226.564 0.152649 223.964C1.63753 221.363 6.83459 218.666 6.83459 218.666C6.83459 218.666 9.43312 223.221 11.1036 221.178Z" fill="#2F2E41"/>
<path d="M38.3763 135.191L40.3715 176.869C40.3715 176.869 22.1658 214.554 20.1706 215.553C19.5761 215.86 19.0491 216.283 18.6208 216.797C18.1924 217.312 17.8714 217.907 17.6767 218.547L6.70337 215.802L11.6912 207.816L22.6646 181.112C22.6646 181.112 24.4103 180.363 24.9091 177.867C25.4079 175.372 26.4055 175.372 23.9115 174.872C21.4176 174.373 21.4176 171.878 21.4176 171.878L13.1876 133.943L38.3763 135.191Z" fill="#2F2E41"/>
<path d="M39.2451 61.4192C40.1277 55.977 36.4345 50.8493 30.9962 49.9662C25.5579 49.083 20.4338 52.7789 19.5513 58.2211C18.6688 63.6632 22.362 68.7909 27.8003 69.6741C33.2386 70.5572 38.3626 66.8614 39.2451 61.4192Z" fill="#FFB9B9"/>
<path d="M20.5446 60.4438C20.5446 60.4438 19.7965 73.172 18.7989 74.4198C17.8013 75.6677 29.2734 75.4181 29.2734 75.4181C29.2734 75.4181 28.5252 64.6865 29.2734 63.6882C30.0216 62.69 20.5446 60.4438 20.5446 60.4438Z" fill="#FFB9B9"/>
<path d="M39.1235 137.936C39.1235 137.936 10.942 135.441 5.70605 137.936C5.70605 137.936 7.63355 130.781 7.1355 130.033C6.77329 129.486 7.77261 109.104 7.45891 97.3459C7.28104 90.7114 5.75133 84.2322 10.1982 79.3064C11.7117 77.6332 13.3999 76.2286 15.1818 75.5425C15.1818 75.5425 14.6838 70.8013 17.1772 70.5521C17.1772 70.5521 26.6562 69.552 30.1458 72.5489C31.2615 73.5004 31.9633 76.4002 32.0377 78.8986C30.3107 87.3973 30.922 96.8281 32.5066 106.612C32.6037 107.233 32.7104 107.858 32.8171 108.482C34.4988 118.185 37.0408 128.188 39.1235 137.936Z" fill="url(#paint8_linear_148_2030)"/>
<path d="M24.1866 62.7619C25.0303 62.7115 25.854 62.9968 26.6918 63.1081C29.6892 63.5064 32.8075 61.3297 33.4693 58.3772C33.5223 57.9841 33.6394 57.6023 33.8159 57.247C34.2772 56.4933 35.3278 56.3496 36.1939 56.5229C37.06 56.6962 37.881 57.1018 38.763 57.1482C40.1248 57.2197 41.4323 56.3807 42.158 55.2253C42.8439 54.0334 43.1356 52.6549 42.9913 51.2871L42.3385 51.9728C42.0732 51.4111 41.9708 50.7863 42.0429 50.1692C41.6969 50.077 41.3331 50.0753 40.9862 50.1641C40.6394 50.2529 40.3211 50.4293 40.0619 50.6765C39.4863 50.7378 39.9207 49.608 39.4931 49.2175C39.2851 49.0896 39.0371 49.0432 38.797 49.0872C37.5723 49.099 36.5816 48.1616 35.6166 47.407C33.9445 46.1025 31.9891 45.2099 29.9086 44.8015C28.5257 44.5316 27.0552 44.4882 25.7437 45.0035C24.685 45.4791 23.7295 46.1574 22.9311 47.0001C20.8778 48.9758 19.0597 51.2973 18.2055 54.0166C17.511 56.2439 17.4914 58.6272 18.1489 60.8657C18.4931 62.0282 19.5304 66.0096 21.049 66.1023C22.9572 66.2188 21.8115 62.9037 24.1866 62.7619Z" fill="#2F2E41"/>
<path d="M28.316 78.5751L31.89 78.9583C31.89 78.9583 35.3983 85.7697 35.1436 87.1904C34.8888 88.6112 34.3339 87.7486 35.913 90.0217C37.4921 92.2948 41.9728 98.1703 42.5277 99.0328C43.0826 99.8953 58.2092 88.3458 57.2688 84.8854C57.2688 84.8854 62.0462 88.3151 64.0929 88.7717C64.0929 88.7717 48.5037 109.231 46.3313 111.85C44.1589 114.468 42.4105 113.93 39.4251 112.378C36.4396 110.825 21.3362 95.3403 21.3362 95.3403L28.316 78.5751Z" fill="url(#paint9_linear_148_2030)"/>
<path opacity="0.1" d="M32.8174 108.482L20.3954 96.0511L23.5389 95.0251L32.5069 106.611C32.6039 107.233 32.7107 107.857 32.8174 108.482Z" fill="#2F2E41"/>
</g>
<defs>
<linearGradient id="paint0_linear_148_2030" x1="78.9614" y1="32.8042" x2="78.9614" y2="44.4375" gradientUnits="userSpaceOnUse">
<stop stop-color="#FF5C00"/>
<stop offset="0.461458" stop-color="#FF0000"/>
<stop offset="1" stop-color="#FF006B"/>
</linearGradient>
<linearGradient id="paint1_linear_148_2030" x1="93.4678" y1="98.962" x2="93.4678" y2="111.166" gradientUnits="userSpaceOnUse">
<stop stop-color="#FF5C00"/>
<stop offset="0.461458" stop-color="#FF0000"/>
<stop offset="1" stop-color="#FF006B"/>
</linearGradient>
<linearGradient id="paint2_linear_148_2030" x1="183.814" y1="7.36032" x2="183.814" y2="19.5647" gradientUnits="userSpaceOnUse">
<stop stop-color="#FF5C00"/>
<stop offset="0.461458" stop-color="#FF0000"/>
<stop offset="1" stop-color="#FF006B"/>
</linearGradient>
<linearGradient id="paint3_linear_148_2030" x1="185.845" y1="73.6268" x2="185.845" y2="85.2601" gradientUnits="userSpaceOnUse">
<stop stop-color="#FF5C00"/>
<stop offset="0.461458" stop-color="#FF0000"/>
<stop offset="1" stop-color="#FF006B"/>
</linearGradient>
<linearGradient id="paint4_linear_148_2030" x1="151.432" y1="124.651" x2="151.432" y2="142.643" gradientUnits="userSpaceOnUse">
<stop stop-color="#FF5C00"/>
<stop offset="0.461458" stop-color="#FF0000"/>
<stop offset="1" stop-color="#FF006B"/>
</linearGradient>
<linearGradient id="paint5_linear_148_2030" x1="269.466" y1="96.569" x2="269.466" y2="129.583" gradientUnits="userSpaceOnUse">
<stop stop-color="#FF5C00"/>
<stop offset="0.461458" stop-color="#FF0000"/>
<stop offset="1" stop-color="#FF006B"/>
</linearGradient>
<linearGradient id="paint6_linear_148_2030" x1="272.53" y1="98.951" x2="272.53" y2="111.927" gradientUnits="userSpaceOnUse">
<stop stop-color="#FF5C00"/>
<stop offset="0.461458" stop-color="#FF0000"/>
<stop offset="1" stop-color="#FF006B"/>
</linearGradient>
<linearGradient id="paint7_linear_148_2030" x1="27.5112" y1="77.2805" x2="27.5112" y2="143.661" gradientUnits="userSpaceOnUse">
<stop stop-color="#FF0000"/>
<stop offset="0.471875" stop-color="#FF4D00"/>
<stop offset="0.961458" stop-color="#FF036D"/>
</linearGradient>
<linearGradient id="paint8_linear_148_2030" x1="22.4148" y1="70.3918" x2="22.4148" y2="137.936" gradientUnits="userSpaceOnUse">
<stop stop-color="#FF0000"/>
<stop offset="0.471875" stop-color="#FF4D00"/>
<stop offset="0.961458" stop-color="#FF036D"/>
</linearGradient>
<linearGradient id="paint9_linear_148_2030" x1="42.7146" y1="78.5751" x2="42.7146" y2="113.678" gradientUnits="userSpaceOnUse">
<stop stop-color="#FF0000"/>
<stop offset="0.471875" stop-color="#FF4D00"/>
<stop offset="0.961458" stop-color="#FF036D"/>
</linearGradient>
<clipPath id="clip0_148_2030">
<rect width="312.353" height="236" fill="white"/>
</clipPath>
</defs>
</svg>
