<svg width="150" height="150" viewBox="0 0 150 150" fill="none" xmlns="http://www.w3.org/2000/svg">
<g clip-path="url(#clip0_148_2105)">
<path d="M150 114.72H0V114.795H150V114.72Z" fill="#EBEBEB"/>
<path d="M71.0999 101.34H13.1729C12.7191 101.339 12.2842 101.158 11.9636 100.837C11.643 100.516 11.4629 100.081 11.4629 99.627V18.198C11.4668 17.7468 11.6486 17.3154 11.9688 16.9975C12.289 16.6795 12.7217 16.5008 13.1729 16.5H71.0999C71.5542 16.5 71.9899 16.6805 72.3112 17.0017C72.6324 17.323 72.8129 17.7587 72.8129 18.213V99.627C72.8129 100.081 72.6324 100.517 72.3112 100.838C71.9899 101.16 71.5542 101.34 71.0999 101.34ZM13.1729 16.56C12.739 16.5608 12.3231 16.7337 12.0166 17.0408C11.7101 17.3479 11.5379 17.7641 11.5379 18.198V99.627C11.5379 100.061 11.7101 100.477 12.0166 100.784C12.3231 101.091 12.739 101.264 13.1729 101.265H71.0999C71.5341 101.264 71.9502 101.091 72.2573 100.784C72.5643 100.477 72.7371 100.061 72.7379 99.627V18.198C72.7371 17.7638 72.5643 17.3476 72.2573 17.0406C71.9502 16.7336 71.5341 16.5608 71.0999 16.56H13.1729Z" fill="#EBEBEB"/>
<path d="M135.993 101.34H78.0631C77.609 101.339 77.1738 101.158 76.8527 100.837C76.5316 100.516 76.3509 100.081 76.3501 99.627V18.198C76.3548 17.7465 76.5373 17.3151 76.858 16.9973C77.1786 16.6794 77.6116 16.5008 78.0631 16.5H135.993C136.444 16.5016 136.876 16.6807 137.195 16.9985C137.515 17.3164 137.696 17.7473 137.7 18.198V99.627C137.7 100.08 137.52 100.515 137.201 100.836C136.881 101.157 136.446 101.338 135.993 101.34ZM78.0631 16.56C77.6289 16.5608 77.2127 16.7336 76.9057 17.0406C76.5987 17.3476 76.4259 17.7638 76.4251 18.198V99.627C76.4259 100.061 76.5987 100.477 76.9057 100.784C77.2127 101.091 77.6289 101.264 78.0631 101.265H135.993C136.427 101.264 136.843 101.091 137.15 100.784C137.457 100.477 137.63 100.061 137.631 99.627V18.198C137.63 17.7638 137.457 17.3476 137.15 17.0406C136.843 16.7336 136.427 16.5608 135.993 16.56H78.0631Z" fill="#EBEBEB"/>
<path d="M60.132 117.576H52.332V117.651H60.132V117.576Z" fill="#EBEBEB"/>
<path d="M31.9678 116.763H15.7378V116.838H31.9678V116.763Z" fill="#EBEBEB"/>
<path d="M52.032 120.363H44.136V120.438H52.032V120.363Z" fill="#EBEBEB"/>
<path d="M89.118 119.859H77.469V119.934H89.118V119.859Z" fill="#EBEBEB"/>
<path d="M94.9951 119.859H91.7881V119.934H94.9951V119.859Z" fill="#EBEBEB"/>
<path d="M134.973 118.593H118.605V118.668H134.973V118.593Z" fill="#EBEBEB"/>
<path d="M105.966 95.673H124.38C127.896 95.673 130.767 93.489 130.839 90.762L131.526 73.662C131.58 71.616 129.459 69.936 126.822 69.936H115.278C112.878 69.936 110.874 71.328 110.604 73.173L105.966 95.673Z" fill="#E6E6E6"/>
<path d="M97.4699 92.9341H116.01V95.6731H96.1949C96.001 95.6723 95.8153 95.5949 95.6782 95.4578C95.5411 95.3207 95.4637 95.135 95.4629 94.9411C95.4629 94.4088 95.6743 93.8983 96.0507 93.5219C96.4271 93.1455 96.9376 92.9341 97.4699 92.9341Z" fill="#E6E6E6"/>
<path d="M114.159 114.72H113.319L111.345 107.331L110.925 105.765L108.3 96H98.286L93.276 114.729H92.439L97.539 95.616C97.5706 95.536 97.6269 95.4682 97.6998 95.4223C97.7726 95.3765 97.8581 95.355 97.944 95.361H108.636C108.721 95.3552 108.806 95.3768 108.879 95.4226C108.951 95.4685 109.007 95.5363 109.038 95.616L111.336 104.202L111.753 105.774L114.159 114.72Z" fill="#E6E6E6"/>
<path d="M130.248 114.72H129.408L124.398 96H114.378L111.762 105.774L111.345 107.34L109.368 114.729H108.528L110.928 105.774L111.348 104.202L113.643 95.616C113.674 95.5362 113.73 95.4685 113.802 95.4226C113.875 95.3767 113.96 95.3551 114.045 95.361H124.737C124.823 95.3551 124.908 95.3767 124.98 95.4226C125.052 95.4685 125.108 95.5362 125.139 95.616L130.248 114.72Z" fill="#E6E6E6"/>
<path d="M31.3319 85.2241H21.9089V112.962H31.3319V85.2241Z" fill="#F0F0F0"/>
<path d="M65.205 112.962H23.718V114.72H65.205V112.962Z" fill="#F0F0F0"/>
<path d="M31.3322 112.962H67.0142V85.224H31.3322V112.962Z" fill="#F5F5F5"/>
<path d="M35.0371 97.7369H63.3091V88.6409H35.0371V97.7369Z" fill="#F0F0F0"/>
<path d="M35.0371 109.548H63.3091V100.452H35.0371V109.548Z" fill="#F0F0F0"/>
<path d="M53.349 92.5649H44.997C44.7336 92.5649 44.52 92.7785 44.52 93.0419V93.3359C44.52 93.5994 44.7336 93.8129 44.997 93.8129H53.349C53.6125 93.8129 53.826 93.5994 53.826 93.3359V93.0419C53.826 92.7785 53.6125 92.5649 53.349 92.5649Z" fill="#F5F5F5"/>
<path d="M53.349 104.376H44.997C44.7336 104.376 44.52 104.59 44.52 104.853V105.147C44.52 105.41 44.7336 105.624 44.997 105.624H53.349C53.6125 105.624 53.826 105.41 53.826 105.147V104.853C53.826 104.59 53.6125 104.376 53.349 104.376Z" fill="#F5F5F5"/>
<path d="M63 79.5659H56.1C56.16 79.3979 56.22 79.2179 56.28 79.0259C56.2827 79.0161 56.2827 79.0057 56.28 78.9959C56.316 78.8799 56.352 78.7599 56.388 78.6359C56.52 78.7933 56.6829 78.9219 56.8666 79.0138C57.0503 79.1056 57.2509 79.1588 57.456 79.1699H57.573C57.7683 79.1521 57.9521 79.0695 58.0951 78.9353C58.2381 78.801 58.332 78.6227 58.362 78.4289C58.3639 78.4058 58.3586 78.3827 58.3468 78.3628C58.335 78.3429 58.3172 78.3272 58.296 78.3179C58.0232 78.1637 57.7175 78.077 57.4044 78.065C57.0912 78.053 56.7798 78.1161 56.496 78.2489C56.568 77.9639 56.637 77.6639 56.7 77.3489C56.7046 77.3353 56.7046 77.3205 56.7 77.3069C56.718 77.2199 56.736 77.1299 56.751 77.0399C57.141 77.4299 57.486 77.6189 57.804 77.6189C58.191 77.6189 58.521 77.3189 58.815 76.7489C58.8239 76.7252 58.8239 76.6992 58.8151 76.6755C58.8063 76.6518 58.7892 76.632 58.767 76.6199C58.008 76.1279 57.177 76.4639 56.811 76.6619C56.844 76.4309 56.874 76.1939 56.895 75.9539C56.913 75.7529 56.925 75.5519 56.934 75.3539C57.044 75.4911 57.1802 75.6051 57.3348 75.689C57.4893 75.773 57.659 75.8253 57.834 75.8429H57.903C58.326 75.8039 58.65 75.3839 58.773 74.7269C58.776 74.6992 58.7685 74.6714 58.752 74.6489C58.7352 74.6255 58.7108 74.6085 58.683 74.6009C58.3857 74.5151 58.0727 74.4991 57.7682 74.5543C57.4638 74.6094 57.1762 74.7342 56.928 74.9189C56.928 74.7269 56.928 74.5349 56.904 74.3429C56.9733 74.3555 57.0435 74.3626 57.114 74.3639C57.3378 74.3519 57.5554 74.2858 57.7482 74.1714C57.941 74.057 58.1032 73.8976 58.221 73.7069C58.2284 73.6941 58.2323 73.6797 58.2323 73.6649C58.2323 73.6502 58.2284 73.6357 58.221 73.6229C58.2143 73.6087 58.2047 73.596 58.1928 73.5857C58.1809 73.5754 58.167 73.5676 58.152 73.5629C57.9876 73.4809 57.8078 73.4345 57.6243 73.4267C57.4408 73.419 57.2577 73.45 57.087 73.5179C56.9283 73.611 56.8113 73.7613 56.76 73.9379C56.5399 73.5318 56.2311 73.1804 55.8567 72.9098C55.4823 72.6392 55.0517 72.4564 54.597 72.3749C54.5849 72.3717 54.5722 72.3716 54.5601 72.3748C54.548 72.3779 54.5369 72.3842 54.528 72.3929C54.5185 72.4014 54.5115 72.4123 54.5078 72.4245C54.5041 72.4366 54.5038 72.4496 54.507 72.4619C54.606 73.1009 54.789 73.8809 55.347 74.2619C55.565 74.4053 55.8211 74.4795 56.082 74.4749C56.298 74.4709 56.5122 74.4355 56.718 74.3699C56.7495 74.8244 56.7495 75.2805 56.718 75.7349C56.1273 75.106 55.378 74.6479 54.549 74.4089C54.5381 74.4052 54.5265 74.4041 54.5151 74.4055C54.5037 74.407 54.4928 74.4111 54.4832 74.4175C54.4737 74.4239 54.4657 74.4324 54.4599 74.4423C54.4542 74.4523 54.4508 74.4634 54.45 74.4749C54.4238 74.7137 54.4545 74.9553 54.5395 75.18C54.6244 75.4048 54.7613 75.6062 54.939 75.7679C55.2651 76.0228 55.6716 76.1526 56.085 76.1339C56.2866 76.1321 56.4875 76.111 56.685 76.0709C56.646 76.4459 56.592 76.8149 56.526 77.1659C56.184 76.9139 55.206 76.2659 54.345 76.5359C54.3335 76.5399 54.323 76.5466 54.3147 76.5555C54.3063 76.5644 54.3002 76.5751 54.297 76.5869C54.2872 76.6109 54.2872 76.6379 54.297 76.6619C54.675 77.2619 55.029 77.6069 55.41 77.7239C55.5073 77.7534 55.6083 77.7686 55.71 77.7689C55.9668 77.7598 56.2164 77.6821 56.433 77.5439C56.331 78.0119 56.217 78.4439 56.1 78.8339C55.8363 78.6028 55.5213 78.4378 55.1812 78.3528C54.841 78.2677 54.4854 78.265 54.144 78.3449C54.1336 78.3471 54.1238 78.3517 54.1153 78.3581C54.1069 78.3646 54.1 78.3729 54.0951 78.3823C54.0902 78.3918 54.0875 78.4023 54.0871 78.4129C54.0868 78.4235 54.0888 78.4341 54.093 78.4439C54.1633 78.6466 54.2763 78.8318 54.4244 78.987C54.5724 79.1423 54.7519 79.264 54.951 79.3439C55.094 79.4016 55.2468 79.4311 55.401 79.4309C55.5968 79.4301 55.7891 79.3784 55.959 79.2809L55.848 79.6049H50.049C49.905 78.9299 49.749 78.1559 49.656 77.3039C49.885 77.3816 50.1252 77.4211 50.367 77.4209C50.9221 77.4108 51.4614 77.2341 51.915 76.9139C52.68 76.3919 53.217 75.5729 53.247 74.8709C53.2489 74.8545 53.2469 74.8379 53.241 74.8225C53.2351 74.807 53.2255 74.7933 53.2131 74.7823C53.2007 74.7714 53.1859 74.7637 53.1698 74.7598C53.1538 74.7559 53.137 74.7559 53.121 74.7599C51.354 74.9399 50.103 76.0739 49.578 76.6439C49.4941 75.8306 49.451 75.0136 49.449 74.1959C49.7732 74.4177 50.1543 74.5416 50.547 74.5529C50.7251 74.5524 50.9021 74.5251 51.072 74.4719C52.014 74.1719 52.872 73.1489 53.676 72.0719C53.69 72.0543 53.7004 72.0341 53.7065 72.0125C53.7127 71.9909 53.7146 71.9683 53.712 71.9459C53.7098 71.9271 53.702 71.9094 53.6897 71.895C53.6775 71.8806 53.6612 71.8701 53.643 71.8649C52.074 71.3819 50.097 73.0409 49.458 73.6349C49.475 72.9052 49.5331 72.1771 49.632 71.4539C49.9817 71.5241 50.3373 71.5603 50.694 71.5619C51.5036 71.5884 52.2984 71.341 52.95 70.8599C53.3086 70.5721 53.6004 70.2097 53.805 69.7978C54.0096 69.386 54.1222 68.9346 54.135 68.4749C54.135 68.3909 54.075 68.3429 53.982 68.3669C52.044 68.8499 50.418 70.1969 49.731 70.8329C49.752 70.7039 49.776 70.5719 49.803 70.4399C49.8126 70.4107 49.8126 70.3791 49.803 70.3499C49.803 69.7889 49.623 69.3809 49.257 69.1739C48.825 68.9309 48.162 68.9639 47.292 69.2789C47.2382 69.2981 47.1927 69.3352 47.163 69.3839C47.1522 69.4053 47.1466 69.4289 47.1466 69.4529C47.1466 69.4769 47.1522 69.5005 47.163 69.5219C47.3401 69.8663 47.6064 70.1568 47.9341 70.3632C48.2618 70.5695 48.6389 70.6841 49.026 70.6949C49.1671 70.6925 49.3076 70.6774 49.446 70.6499C49.378 71.0159 49.321 71.3819 49.275 71.7479C48.822 71.3729 47.775 70.7789 46.095 71.2049C46.0452 71.2172 46.0008 71.2457 45.969 71.2859C45.9373 71.3201 45.9201 71.3653 45.921 71.4119C46.005 72.6119 46.521 73.3679 47.277 73.4339H47.385C47.784 73.4339 48.39 73.2509 49.185 72.5129C49.1166 73.335 49.0955 74.1604 49.122 74.9849C48.498 74.6309 47.022 74.0219 45.522 74.9489C45.4837 74.968 45.4529 74.9993 45.4344 75.0379C45.4159 75.0765 45.4108 75.1201 45.42 75.1619C45.828 76.2179 46.368 76.7309 47.07 76.7309H47.088C47.673 76.7309 48.351 76.3649 49.155 75.6419C49.203 76.4339 49.284 77.1899 49.386 77.8919C48.786 77.4269 47.955 77.5019 46.782 78.1109C46.7294 78.1379 46.688 78.1825 46.665 78.2369C46.6553 78.2581 46.6521 78.2816 46.6558 78.3046C46.6595 78.3276 46.6701 78.3489 46.686 78.3659C47.1549 78.7919 47.7599 79.0375 48.393 79.0589C48.7889 79.0602 49.178 78.9567 49.521 78.7589C49.575 79.0589 49.632 79.3409 49.686 79.6139H39.69C39.882 79.0979 40.092 78.4949 40.29 77.8139C40.2991 77.7939 40.3052 77.7727 40.308 77.7509C40.384 77.5069 40.459 77.2549 40.533 76.9949C41.223 77.7209 42.015 78.1199 42.783 78.1199C42.8652 78.1194 42.9473 78.1144 43.029 78.1049C43.4494 78.0696 43.8448 77.8909 44.149 77.5987C44.4533 77.3064 44.6478 76.9185 44.7 76.4999C44.7029 76.4516 44.6913 76.4035 44.6668 76.3618C44.6422 76.3201 44.6057 76.2867 44.562 76.2659C42.807 75.3899 41.448 75.7859 40.77 76.1189C40.923 75.5189 41.07 74.8889 41.199 74.2319C41.2127 74.2051 41.2189 74.175 41.217 74.1449C41.253 73.9589 41.286 73.7729 41.319 73.5839C42.141 74.3999 42.87 74.8019 43.536 74.8019C44.349 74.8019 45.036 74.2019 45.663 72.9689C45.6806 72.9194 45.6803 72.8653 45.6623 72.816C45.6442 72.7667 45.6094 72.7253 45.564 72.6989C43.962 71.6609 42.216 72.3689 41.445 72.7859C41.517 72.2969 41.577 71.7989 41.622 71.2859C41.622 71.2859 41.622 71.2679 41.622 71.2619C41.658 70.8419 41.682 70.4189 41.697 69.9899C42.504 70.8119 43.164 71.0189 43.62 71.0189H43.767C44.667 70.9289 45.339 70.0499 45.597 68.6639C45.6009 68.636 45.5992 68.6075 45.592 68.5802C45.5848 68.5529 45.5722 68.5273 45.555 68.5049C45.5194 68.4548 45.4674 68.4188 45.408 68.4029C44.7817 68.2223 44.1222 68.1884 43.4807 68.3039C42.8392 68.4194 42.233 68.6812 41.709 69.0689C41.709 68.6669 41.691 68.2619 41.664 67.8689C41.8104 67.8967 41.959 67.9117 42.108 67.9139C43.59 67.9139 44.397 66.5939 44.433 66.5309C44.4472 66.5041 44.4546 66.4742 44.4546 66.4439C44.4546 66.4136 44.4472 66.3837 44.433 66.3569C44.402 66.2963 44.3496 66.2493 44.286 66.2249C43.332 65.8739 42.576 65.8439 42.045 66.1349C41.709 66.3287 41.4624 66.6464 41.358 67.0199C40.8951 66.1641 40.2457 65.4232 39.458 64.852C38.6703 64.2809 37.7643 63.894 36.807 63.7199C36.7807 63.7141 36.7534 63.7147 36.7273 63.7214C36.7013 63.7282 36.6772 63.7411 36.657 63.7589C36.6377 63.777 36.6234 63.7997 36.6155 63.825C36.6076 63.8502 36.6064 63.8771 36.612 63.9029C36.819 65.2469 37.212 66.9029 38.385 67.6739C38.8426 67.9764 39.3816 68.1323 39.93 68.1209C40.3842 68.1126 40.8348 68.0389 41.268 67.9019C41.3276 68.8592 41.3225 69.8193 41.253 70.7759C40.578 70.0799 38.88 68.5229 36.687 67.9859C36.664 67.9779 36.6395 67.9754 36.6153 67.9787C36.5912 67.9819 36.5682 67.9907 36.548 68.0044C36.5279 68.0181 36.5113 68.0363 36.4995 68.0576C36.4877 68.0788 36.481 68.1026 36.48 68.1269C36.417 69.2819 36.78 70.2269 37.503 70.8419C38.1856 71.377 39.0364 71.6514 39.903 71.6159C40.3313 71.6117 40.7583 71.5665 41.178 71.4809C41.1 72.2729 40.983 73.0469 40.845 73.7879C40.128 73.2539 38.064 71.8979 36.255 72.4649C36.2307 72.4717 36.2085 72.4847 36.1906 72.5025C36.1728 72.5204 36.1598 72.5426 36.153 72.5669C36.1471 72.5941 36.1467 72.6222 36.1518 72.6495C36.157 72.6768 36.1676 72.7028 36.183 72.7259C36.981 74.0069 37.725 74.7179 38.529 74.9609C38.7358 75.0255 38.9513 75.0578 39.168 75.0569C39.7073 75.0376 40.2315 74.8739 40.686 74.5829C40.476 75.5639 40.233 76.4819 39.984 77.3009C39.4309 76.8125 38.7689 76.4636 38.0533 76.2836C37.3377 76.1035 36.5894 76.0974 35.871 76.2659C35.8493 76.2709 35.829 76.2805 35.8113 76.294C35.7936 76.3075 35.779 76.3246 35.7685 76.3442C35.758 76.3638 35.7518 76.3854 35.7503 76.4076C35.7489 76.4298 35.7522 76.4521 35.76 76.4729C35.9082 76.8983 36.1454 77.2871 36.4558 77.6136C36.7662 77.94 37.1426 78.1965 37.56 78.3659C37.8606 78.4866 38.1811 78.5497 38.505 78.5519C38.9187 78.5492 39.3243 78.4375 39.681 78.2279C39.513 78.7349 39.351 79.1819 39.201 79.5749H32.7C32.508 79.0019 32.31 78.3509 32.133 77.6399C32.3375 77.7061 32.551 77.7405 32.766 77.7419C33.3534 77.7255 33.9124 77.4858 34.3293 77.0717C34.7462 76.6576 34.9896 76.1002 35.01 75.5129C35.009 75.4982 35.0049 75.4839 34.9979 75.471C34.991 75.458 34.9815 75.4466 34.9699 75.4375C34.9583 75.4285 34.9449 75.422 34.9306 75.4184C34.9163 75.4149 34.9015 75.4144 34.887 75.4169C34.3204 75.488 33.7734 75.6701 33.2771 75.9527C32.7809 76.2353 32.3452 76.6129 31.995 77.0639C31.842 76.3889 31.695 75.6689 31.617 74.9249C31.9166 75.1114 32.2603 75.2149 32.613 75.2249C32.7669 75.2249 32.9197 75.2006 33.066 75.1529C33.858 74.9009 34.503 73.9979 35.082 73.0529C35.0921 73.037 35.0988 73.0193 35.1019 73.0007C35.105 72.9822 35.1044 72.9632 35.1 72.9449C35.0959 72.9279 35.0874 72.9122 35.0752 72.8996C35.0631 72.8869 35.0478 72.8777 35.031 72.8729C33.609 72.4529 32.061 73.9019 31.563 74.4179C31.5012 73.7849 31.4742 73.1489 31.482 72.5129C31.7913 72.5745 32.1057 72.6067 32.421 72.6089C33.1073 72.6382 33.7812 72.4199 34.32 71.9939C34.6048 71.7323 34.8237 71.407 34.9587 71.0447C35.0938 70.6823 35.1412 70.2931 35.097 69.9089C35.0963 69.8921 35.0916 69.8758 35.0832 69.8612C35.0749 69.8466 35.0632 69.8343 35.0491 69.8252C35.035 69.8161 35.0189 69.8105 35.0022 69.8088C34.9854 69.8072 34.9686 69.8097 34.953 69.8159C33.309 70.2389 32.034 71.4149 31.5 71.9729C31.5 71.8559 31.5 71.7419 31.521 71.6279C31.524 71.6002 31.5166 71.5724 31.5 71.5499C31.4942 71.3419 31.4362 71.1386 31.3314 70.9588C31.2266 70.779 31.0782 70.6284 30.9 70.5209C30.495 70.3079 29.922 70.3379 29.193 70.6139C29.1709 70.6217 29.1507 70.634 29.1337 70.65C29.1166 70.666 29.1031 70.6854 29.094 70.7069C29.0837 70.7247 29.0783 70.7449 29.0783 70.7654C29.0783 70.786 29.0837 70.8061 29.094 70.8239C29.124 70.8719 29.736 71.8499 30.849 71.8499C30.9709 71.8482 31.0925 71.8351 31.212 71.8109C31.191 72.1319 31.179 72.4499 31.179 72.7709C30.7744 72.4787 30.3076 72.2842 29.8153 72.2025C29.3229 72.1208 28.8183 72.1541 28.341 72.2999C28.3007 72.3118 28.2658 72.3373 28.242 72.3719C28.2296 72.3874 28.2206 72.4052 28.2154 72.4243C28.2103 72.4434 28.2091 72.4633 28.212 72.4829C28.413 73.5329 28.938 74.1929 29.616 74.2499H29.7C30.048 74.2499 30.558 74.0879 31.182 73.4429C31.2099 74.1664 31.2801 74.8876 31.392 75.6029C30.81 75.3029 29.463 74.7629 28.239 75.5729C28.2073 75.5907 28.1829 75.6191 28.1703 75.6532C28.1576 75.6873 28.1575 75.7248 28.17 75.7589C28.644 76.6799 29.169 77.1299 29.781 77.1299H29.799C30.306 77.1299 30.861 76.8089 31.488 76.1789C31.614 76.8719 31.764 77.5319 31.929 78.1439C31.368 77.7389 30.639 77.8019 29.679 78.3359C29.6574 78.3468 29.6383 78.362 29.6228 78.3806C29.6073 78.3992 29.5958 78.4207 29.589 78.4439C29.5838 78.4641 29.5842 78.4854 29.59 78.5054C29.5958 78.5255 29.6068 78.5436 29.622 78.5579C30.0654 78.922 30.6148 79.1326 31.188 79.1579C31.5248 79.1574 31.8549 79.064 32.142 78.8879C32.211 79.1189 32.283 79.3439 32.352 79.5569H26.052V80.7569H28.554L30.315 85.2179H58.725L60.486 80.7569H63V79.5659Z" fill="#E6E6E6"/>
<path d="M103.125 20.322H21.9089V58.566H22.8779L23.4389 59.502H29.5289L30.0899 58.566H103.125V20.322Z" fill="#E0E0E0"/>
<path d="M103.464 20.322H22.2449V58.566H23.2139L23.7779 59.502H29.8649L30.4289 58.566H103.464V20.322Z" fill="#E6E6E6"/>
<path d="M101.79 56.8951V21.9961L23.919 21.9961V56.8951L101.79 56.8951Z" fill="#FAFAFA"/>
<path d="M80.772 56.8949L63.408 21.9959H56.115L73.476 56.8949H80.772Z" fill="white"/>
<path d="M69.9872 56.8949L52.6232 21.9959H49.3892L66.7532 56.8949H69.9872Z" fill="white"/>
<path d="M25.008 59.118C25.2482 59.118 25.443 58.9233 25.443 58.683C25.443 58.4428 25.2482 58.248 25.008 58.248C24.7678 58.248 24.573 58.4428 24.573 58.683C24.573 58.9233 24.7678 59.118 25.008 59.118Z" fill="#FAFAFA"/>
<path d="M26.3881 59.118C26.6284 59.118 26.8231 58.9233 26.8231 58.683C26.8231 58.4428 26.6284 58.248 26.3881 58.248C26.1479 58.248 25.9531 58.4428 25.9531 58.683C25.9531 58.9233 26.1479 59.118 26.3881 59.118Z" fill="#F0F0F0"/>
<path d="M75 128.268C107.125 128.268 133.167 126.748 133.167 124.872C133.167 122.996 107.125 121.476 75 121.476C42.8753 121.476 16.833 122.996 16.833 124.872C16.833 126.748 42.8753 128.268 75 128.268Z" fill="#F5F5F5"/>
<path d="M126.936 44.4389H126.636V46.0919H126.936V44.4389Z" fill="url(#paint0_linear_148_2105)"/>
<path d="M126.936 38.0908H126.636V43.0228H126.936V38.0908Z" fill="url(#paint1_linear_148_2105)"/>
<path d="M122.286 27.384H76.5211C75.5663 27.384 74.6506 27.7633 73.9755 28.4384C73.3004 29.1135 72.9211 30.0292 72.9211 30.984V46.059L67.9441 51.036L72.9211 56.016V86.382C72.9211 87.3368 73.3004 88.2524 73.9755 88.9276C74.6506 89.6027 75.5663 89.982 76.5211 89.982H122.286C123.241 89.982 124.157 89.6027 124.832 88.9276C125.507 88.2524 125.886 87.3368 125.886 86.382V30.984C125.886 30.0292 125.507 29.1135 124.832 28.4384C124.157 27.7633 123.241 27.384 122.286 27.384Z" fill="url(#paint2_linear_148_2105)"/>
<path opacity="0.1" d="M93.4831 89.9819H81.6001L93.6151 27.3839H105.498L93.4831 89.9819Z" fill="white"/>
<path opacity="0.1" d="M102.588 89.9819H98.325L110.337 27.3839H114.6L102.588 89.9819Z" fill="white"/>
<path d="M102.777 41.8169C102.777 40.5765 102.284 39.3869 101.407 38.5098C100.53 37.6327 99.3403 37.1399 98.0999 37.1399C96.8594 37.1399 95.6698 37.6327 94.7927 38.5098C93.9156 39.3869 93.4229 40.5765 93.4229 41.8169V49.4579L102.777 46.0589V41.8169Z" fill="#263238"/>
<path d="M94.2512 53.1599L93.8162 61.9769L93.7682 63.0959C93.7404 63.5337 93.67 63.9678 93.5582 64.3919C93.3541 65.1617 93.0841 65.9125 92.7512 66.6359C92.1187 68.025 91.3627 69.3543 90.4922 70.6079L89.4092 70.0079C89.9642 68.6729 90.5102 67.3079 90.9302 65.9519C91.1429 65.2982 91.3102 64.6307 91.4312 63.9539C91.4822 63.6567 91.5073 63.3555 91.5062 63.0539L91.4882 61.9559C91.4742 60.4619 91.4902 58.9709 91.5362 57.4829C91.5752 55.9829 91.6412 54.5129 91.7462 53.0219L94.2512 53.1599Z" fill="#FFB573"/>
<path d="M92.544 50.1689C91.53 50.4269 90.822 54.5909 90.822 54.5909L93.612 56.4899C93.612 56.4899 96.285 52.2899 95.508 51.1739C94.698 50.0129 94.02 49.7999 92.544 50.1689Z" fill="#263238"/>
<path opacity="0.2" d="M92.6339 51.099L91.8569 55.296L93.4229 56.361L92.6339 51.099Z" fill="black"/>
<path d="M89.4 69.9958L88.698 72.1108L91.05 71.2648C91.05 71.2648 91.296 69.7078 90.486 69.0898L90.258 69.1798C90.0585 69.2339 89.8756 69.3368 89.7258 69.4793C89.576 69.6217 89.464 69.7993 89.4 69.9958Z" fill="#FFB573"/>
<path d="M89.049 73.9049L91.104 73.5029L91.059 71.2649L88.707 72.1109L89.049 73.9049Z" fill="#FFB573"/>
<path d="M92.544 50.1689C92.544 50.1689 91.371 50.5799 93.717 64.9919H103.692C103.524 60.9329 103.521 58.4279 105.459 50.0969C104.063 49.8076 102.647 49.6211 101.223 49.5389C99.7149 49.4308 98.201 49.4308 96.693 49.5389C94.749 49.7159 92.544 50.1689 92.544 50.1689Z" fill="#263238"/>
<path opacity="0.7" d="M95.4778 60.615H97.9498L96.2368 55.74H93.7678L95.4778 60.615Z" fill="black"/>
<path d="M95.3102 60.615H97.7822L96.0692 55.74H93.5972L95.3102 60.615Z" fill="url(#paint3_linear_148_2105)"/>
<path d="M100.776 44.4389C100.491 45.8969 100.203 48.5669 101.223 49.5389C101.223 49.5389 100.827 51.0179 98.118 51.0179C95.139 51.0179 96.693 49.5389 96.693 49.5389C98.319 49.1519 98.277 47.9459 97.995 46.8119L100.776 44.4389Z" fill="#FFB573"/>
<path opacity="0.2" d="M99.6421 45.4079L97.9951 46.7999C98.0665 47.063 98.1137 47.3321 98.1361 47.6039C98.7571 47.5139 99.6091 46.8329 99.6751 46.1819C99.7111 45.924 99.6999 45.6617 99.6421 45.4079Z" fill="black"/>
<path d="M101.199 40.8C101.499 43.218 101.673 44.235 100.692 45.687C99.2161 47.871 96.1921 47.706 95.1661 45.423C94.2661 43.368 93.9241 39.756 96.0901 38.37C96.5662 38.0621 97.1132 37.8812 97.679 37.8444C98.2447 37.8076 98.8105 37.9161 99.3225 38.1596C99.8345 38.4031 100.276 38.7736 100.604 39.2357C100.933 39.6979 101.137 40.2363 101.199 40.8Z" fill="#FFB573"/>
<path d="M95.283 38.9578C95.268 39.0088 98.883 42.8578 101.433 42.5428C101.967 41.7418 101.718 39.2248 100.752 38.6908C99.786 38.1568 98.352 37.4068 97.383 37.5748C96.414 37.7428 95.283 38.9578 95.283 38.9578Z" fill="#263238"/>
<path d="M93.7168 64.9919C93.7168 64.9919 90.8218 73.3919 92.2498 89.9819H100.602C101.202 80.9819 101.022 64.9919 101.022 64.9919H93.7168Z" fill="white"/>
<path d="M103.692 64.9919H96.4771C96.4771 64.9919 98.3041 81.7709 99.4771 89.9819H106.947C107.835 69.0899 103.692 64.9919 103.692 64.9919Z" fill="white"/>
<path d="M97.8839 89.982C97.8839 89.982 97.1669 79.158 98.0339 76.224C98.8829 80.592 101.334 89.982 101.334 89.982H97.8839Z" fill="#F5F5F5"/>
<path d="M97.5 42.1499C97.536 42.3449 97.461 42.5219 97.335 42.5459C97.209 42.5699 97.074 42.4289 97.035 42.2459C96.996 42.0629 97.074 41.8739 97.2 41.8499C97.326 41.8259 97.467 41.9549 97.5 42.1499Z" fill="#263238"/>
<path d="M95.301 42.5579C95.337 42.7529 95.262 42.9299 95.136 42.9509C95.01 42.9719 94.875 42.8369 94.836 42.6509C94.797 42.4649 94.875 42.2789 95.001 42.2549C95.127 42.2309 95.265 42.3629 95.301 42.5579Z" fill="#263238"/>
<path d="M95.0641 42.2458L94.5691 42.1978C94.5691 42.1978 94.8781 42.5188 95.0641 42.2458Z" fill="#263238"/>
<path d="M96.0448 42.7829C95.9529 43.2589 95.7965 43.7201 95.5798 44.1539C95.6927 44.206 95.8155 44.233 95.9398 44.233C96.0641 44.233 96.187 44.206 96.2998 44.1539L96.0448 42.7829Z" fill="#ED893E"/>
<path d="M97.4999 44.7209C97.407 44.7533 97.3117 44.7784 97.2149 44.7959C97.2002 44.7985 97.1851 44.7953 97.1727 44.7869C97.1604 44.7785 97.1518 44.7655 97.1489 44.7509C97.1462 44.7358 97.1493 44.7203 97.1577 44.7074C97.1661 44.6946 97.179 44.6855 97.1939 44.6819C97.438 44.6431 97.6693 44.5471 97.8691 44.4016C98.0688 44.2561 98.2312 44.0653 98.3429 43.8449C98.3459 43.838 98.3501 43.8318 98.3555 43.8265C98.3609 43.8213 98.3672 43.8171 98.3742 43.8144C98.3812 43.8116 98.3886 43.8102 98.3961 43.8103C98.4036 43.8104 98.411 43.8119 98.4179 43.8149C98.4248 43.8178 98.431 43.8221 98.4363 43.8275C98.4415 43.8329 98.4457 43.8392 98.4484 43.8462C98.4512 43.8531 98.4526 43.8606 98.4525 43.8681C98.4524 43.8756 98.4509 43.883 98.4479 43.8899C98.3536 44.0848 98.2211 44.2588 98.0582 44.4016C97.8954 44.5443 97.7055 44.6529 97.4999 44.7209Z" fill="#263238"/>
<path d="M102.255 42.882C102.172 43.3458 101.909 43.758 101.523 44.028C101.007 44.382 100.548 43.971 100.524 43.38C100.5 42.849 100.74 42.021 101.337 41.904C101.468 41.8807 101.603 41.8906 101.729 41.9326C101.856 41.9746 101.969 42.0474 102.061 42.1445C102.152 42.2416 102.217 42.3599 102.251 42.4886C102.285 42.6174 102.286 42.7526 102.255 42.882Z" fill="#FFB573"/>
<path d="M98.3039 41.538C98.2805 41.5454 98.2555 41.5456 98.232 41.5386C98.2084 41.5317 98.1875 41.5179 98.1719 41.4989C97.8449 41.0699 97.1549 41.0909 97.1459 41.0909C97.1151 41.091 97.0855 41.0792 97.0631 41.0579C97.0408 41.0367 97.0275 41.0077 97.0259 40.9769C97.0251 40.9464 97.0362 40.9168 97.057 40.8943C97.0777 40.8719 97.1064 40.8585 97.1369 40.8569C97.1699 40.8569 97.9589 40.8329 98.3579 41.3579C98.3672 41.3701 98.374 41.3839 98.3778 41.3987C98.3816 41.4135 98.3825 41.4289 98.3802 41.444C98.378 41.4591 98.3727 41.4736 98.3648 41.4867C98.3568 41.4997 98.3463 41.511 98.3339 41.5199L98.3039 41.538Z" fill="#263238"/>
<path d="M94.4521 41.6609C94.433 41.6686 94.4122 41.6707 94.392 41.667C94.3718 41.6633 94.3531 41.6539 94.3381 41.6399C94.327 41.6295 94.3182 41.617 94.3121 41.6031C94.3061 41.5891 94.303 41.5741 94.303 41.5589C94.303 41.5437 94.3061 41.5287 94.3121 41.5148C94.3182 41.5009 94.327 41.4883 94.3381 41.4779C94.4538 41.3335 94.6024 41.2189 94.7715 41.1437C94.9407 41.0686 95.1253 41.035 95.3101 41.0459C95.3251 41.0478 95.3396 41.0526 95.3528 41.0601C95.3659 41.0676 95.3774 41.0777 95.3866 41.0897C95.3958 41.1017 95.4026 41.1154 95.4064 41.13C95.4103 41.1447 95.4112 41.1599 95.4091 41.1749C95.4053 41.2055 95.3897 41.2333 95.3655 41.2524C95.3414 41.2715 95.3107 41.2803 95.2801 41.2769C95.1336 41.2687 94.9874 41.2963 94.854 41.3575C94.7207 41.4187 94.6043 41.5115 94.5151 41.6279C94.4984 41.6457 94.4762 41.6574 94.4521 41.6609Z" fill="#263238"/>
<path d="M106.608 52.9558C106.893 54.3598 107.103 55.7428 107.271 57.1558C107.447 58.5715 107.547 59.9955 107.571 61.4218V61.5568C107.571 61.5568 107.571 61.6528 107.571 61.7068C107.57 61.7732 107.564 61.8394 107.553 61.9048C107.499 62.2454 107.331 62.5574 107.076 62.7898C106.87 62.973 106.62 63.0992 106.35 63.1558C106.183 63.1922 106.013 63.2094 105.843 63.2068C105.598 63.2 105.355 63.1688 105.117 63.1138C104.907 63.0688 104.712 63.0118 104.517 62.9548C103.819 62.7185 103.138 62.4328 102.48 62.0998C101.21 61.4603 99.9825 60.7398 98.8049 59.9428L99.4049 58.8508C100.038 59.1088 100.677 59.3788 101.316 59.6278C101.955 59.8768 102.588 60.1318 103.227 60.3508C103.836 60.571 104.458 60.7544 105.09 60.8998C105.24 60.9328 105.39 60.9598 105.513 60.9748C105.613 60.9864 105.713 60.9864 105.813 60.9748C105.846 60.9748 105.849 60.9748 105.813 60.9748C105.714 60.9976 105.623 61.0463 105.549 61.1158C105.425 61.2283 105.339 61.3776 105.306 61.5418V61.6108C105.306 61.6108 105.306 61.6708 105.306 61.6318V61.5058C105.192 60.1708 105.006 58.8058 104.811 57.4678C104.616 56.1298 104.373 54.7528 104.142 53.4238L106.608 52.9558Z" fill="#FFB573"/>
<path d="M105.459 50.0999C106.461 50.3999 107.661 53.8439 107.661 53.8439L103.782 56.6189C103.782 56.6189 102.369 53.7449 102.789 52.4519C103.227 51.1049 104.319 49.7489 105.459 50.0999Z" fill="#263238"/>
<path d="M97.266 41.8379L96.771 41.7899C96.771 41.7899 97.08 42.1109 97.266 41.8379Z" fill="#263238"/>
<path d="M99.66 58.9559L97.26 57.8189L97.896 60.2339C97.896 60.2339 99.309 60.9389 99.996 60.1829L99.66 58.9559Z" fill="#FFB573"/>
<path d="M95.25 58.2719L95.889 60.2639L97.899 60.2339L97.263 57.8189L95.25 58.2719Z" fill="#FFB573"/>
<path d="M104.013 65.1389C100.524 65.589 97.001 65.7155 93.4888 65.5169C93.4294 65.5131 93.3739 65.4861 93.3341 65.4418C93.2942 65.3975 93.2734 65.3394 93.2758 65.2799C93.2758 65.0609 93.2998 64.8419 93.3088 64.6229C93.31 64.5935 93.317 64.5646 93.3294 64.5379C93.3418 64.5112 93.3594 64.4872 93.3812 64.4674C93.403 64.4476 93.4285 64.4323 93.4562 64.4224C93.484 64.4126 93.5134 64.4083 93.5428 64.4099C96.9888 64.6055 100.446 64.482 103.869 64.0409C103.927 64.0341 103.986 64.0503 104.032 64.0862C104.079 64.1221 104.11 64.1748 104.118 64.2329C104.145 64.4519 104.175 64.6709 104.205 64.8899C104.209 64.9189 104.207 64.9483 104.199 64.9765C104.191 65.0047 104.178 65.0311 104.161 65.0543C104.143 65.0774 104.12 65.0968 104.095 65.1113C104.07 65.1258 104.042 65.1352 104.013 65.1389Z" fill="url(#paint4_linear_148_2105)"/>
<path opacity="0.4" d="M104.013 65.1389C100.524 65.589 97.001 65.7155 93.4888 65.5169C93.4294 65.5131 93.3739 65.4861 93.3341 65.4418C93.2942 65.3975 93.2734 65.3394 93.2758 65.2799C93.2758 65.0609 93.2998 64.8419 93.3088 64.6229C93.31 64.5935 93.317 64.5646 93.3294 64.5379C93.3418 64.5112 93.3594 64.4872 93.3812 64.4674C93.403 64.4476 93.4285 64.4323 93.4562 64.4224C93.484 64.4126 93.5134 64.4083 93.5428 64.4099C96.9888 64.6055 100.446 64.482 103.869 64.0409C103.927 64.0341 103.986 64.0503 104.032 64.0862C104.079 64.1221 104.11 64.1748 104.118 64.2329C104.145 64.4519 104.175 64.6709 104.205 64.8899C104.209 64.9189 104.207 64.9483 104.199 64.9765C104.191 65.0047 104.178 65.0311 104.161 65.0543C104.143 65.0774 104.12 65.0968 104.095 65.1113C104.07 65.1258 104.042 65.1352 104.013 65.1389Z" fill="black"/>
<path d="M100.5 32.3369C100.5 32.5505 100.437 32.7593 100.318 32.9369C100.199 33.1145 100.031 33.253 99.8334 33.3347C99.636 33.4165 99.4189 33.4378 99.2094 33.3962C98.9999 33.3545 98.8074 33.2516 98.6564 33.1006C98.5054 32.9496 98.4025 32.7571 98.3608 32.5476C98.3192 32.3381 98.3406 32.121 98.4223 31.9236C98.504 31.7263 98.6425 31.5576 98.8201 31.4389C98.9977 31.3203 99.2065 31.2569 99.4201 31.2569C99.7065 31.2569 99.9812 31.3707 100.184 31.5733C100.386 31.7758 100.5 32.0505 100.5 32.3369Z" fill="white"/>
<path d="M95.154 33.4169C95.7504 33.4169 96.234 32.9334 96.234 32.3369C96.234 31.7405 95.7504 31.2569 95.154 31.2569C94.5575 31.2569 94.074 31.7405 94.074 32.3369C94.074 32.9334 94.5575 33.4169 95.154 33.4169Z" fill="white"/>
<path d="M104.736 32.3369C104.736 32.5505 104.673 32.7593 104.554 32.9369C104.435 33.1145 104.267 33.253 104.069 33.3347C103.872 33.4165 103.655 33.4378 103.445 33.3962C103.236 33.3545 103.043 33.2516 102.892 33.1006C102.741 32.9496 102.638 32.7571 102.597 32.5476C102.555 32.3381 102.576 32.121 102.658 31.9236C102.74 31.7263 102.878 31.5576 103.056 31.4389C103.234 31.3203 103.442 31.2569 103.656 31.2569C103.798 31.2569 103.938 31.2849 104.069 31.3391C104.2 31.3934 104.319 31.473 104.42 31.5733C104.52 31.6735 104.599 31.7926 104.654 31.9236C104.708 32.0547 104.736 32.1951 104.736 32.3369Z" fill="white"/>
<path d="M60.2584 121.647L62.4304 121.143L61.5814 116.064L59.4094 116.568L60.2584 121.647Z" fill="#CE7A63"/>
<path d="M62.4872 120.864L60.0483 121.431C60.0067 121.439 59.97 121.463 59.9459 121.498C59.9218 121.533 59.9122 121.575 59.9192 121.617L60.2342 123.57C60.2453 123.621 60.2661 123.668 60.2956 123.711C60.3251 123.753 60.3626 123.789 60.4061 123.817C60.4496 123.845 60.4981 123.864 60.5489 123.873C60.5997 123.882 60.6518 123.881 60.7022 123.87C61.5482 123.66 61.9413 123.516 63.0153 123.27C63.6753 123.117 66.4983 122.532 67.4073 122.322C68.3163 122.112 68.0912 121.218 67.6862 121.224C65.8712 121.263 63.6122 121.257 62.8862 120.924C62.7635 120.861 62.6232 120.84 62.4872 120.864Z" fill="#263238"/>
<path opacity="0.2" d="M59.4094 116.571L61.5814 116.064L62.0194 118.683L59.8444 119.187L59.4094 116.571Z" fill="black"/>
<path d="M56.1482 66.1409C56.1482 66.1409 59.0102 84.2459 59.8502 90.5609C60.7712 97.4759 62.7152 117.702 62.7152 117.702L58.7792 118.8C58.7792 118.8 55.0502 99.1979 53.5142 92.4749C51.8462 85.1789 48.2012 66.1529 48.2012 66.1529L56.1482 66.1409Z" fill="url(#paint5_linear_148_2105)"/>
<path opacity="0.5" d="M56.1482 66.1409C56.1482 66.1409 59.0102 84.2459 59.8502 90.5609C60.7712 97.4759 62.7152 117.702 62.7152 117.702L58.7792 118.8C58.7792 118.8 55.0502 99.1979 53.5142 92.4749C51.8462 85.1789 48.2012 66.1529 48.2012 66.1529L56.1482 66.1409Z" fill="black"/>
<path opacity="0.3" d="M51.4803 72.5011C52.9803 76.3381 52.8963 83.9251 52.2513 86.6011C51.3513 82.2121 50.3073 76.9621 49.5063 72.8791C49.8003 71.8291 50.5653 70.1671 51.4803 72.5011Z" fill="black"/>
<path d="M58.6802 118.866L62.8951 117.705L62.8261 115.992L58.0771 117.63L58.6802 118.866Z" fill="url(#paint6_linear_148_2105)"/>
<path d="M63.3423 121.065C63.1448 121.105 62.9437 121.124 62.7423 121.122C62.7319 121.122 62.7217 121.119 62.7131 121.113C62.7045 121.107 62.698 121.099 62.6943 121.089C62.6898 121.081 62.6875 121.071 62.6875 121.062C62.6875 121.053 62.6898 121.043 62.6943 121.035C62.7543 120.969 63.2733 120.408 63.5643 120.45C63.5971 120.455 63.6281 120.469 63.6543 120.489C63.6805 120.51 63.7011 120.537 63.7143 120.567C63.7425 120.612 63.7575 120.664 63.7575 120.717C63.7575 120.77 63.7425 120.822 63.7143 120.867C63.6183 120.976 63.4862 121.046 63.3423 121.065ZM62.8683 121.014C63.2733 121.014 63.5583 120.924 63.6363 120.801C63.6532 120.772 63.6621 120.74 63.6621 120.707C63.6621 120.673 63.6532 120.641 63.6363 120.612C63.631 120.596 63.6214 120.583 63.6087 120.572C63.596 120.561 63.5807 120.554 63.5643 120.552C63.4053 120.531 63.0843 120.798 62.8683 121.014Z" fill="url(#paint7_linear_148_2105)"/>
<path d="M62.7572 121.119H62.7332C62.7246 121.118 62.7167 121.114 62.7103 121.108C62.7039 121.102 62.6994 121.094 62.6972 121.086C62.6972 121.059 62.4992 120.447 62.6702 120.186C62.692 120.152 62.7212 120.124 62.7555 120.103C62.7898 120.083 62.8283 120.07 62.8682 120.066C62.9119 120.057 62.9575 120.063 62.9973 120.083C63.0372 120.103 63.0689 120.136 63.0872 120.177C63.1892 120.402 62.9672 120.927 62.7872 121.107L62.7572 121.119ZM62.8562 120.174C62.8359 120.178 62.8167 120.187 62.7997 120.199C62.7827 120.21 62.7683 120.226 62.7572 120.243C62.6809 120.477 62.6809 120.729 62.7572 120.963C62.9232 120.752 63.0036 120.486 62.9822 120.219C62.9822 120.192 62.9432 120.162 62.8682 120.168L62.8562 120.174Z" fill="url(#paint8_linear_148_2105)"/>
<path d="M56.2682 48.9299C56.6162 49.4129 56.9042 49.8539 57.1982 50.3279C57.4922 50.8019 57.7682 51.2639 58.0292 51.7439C58.566 52.7051 59.0527 53.6934 59.4872 54.7049C59.7032 55.2119 59.9162 55.7249 60.1022 56.2499C60.2012 56.5109 60.2852 56.7779 60.3722 57.0449C60.4142 57.1859 60.4622 57.2939 60.5012 57.4589C60.5402 57.6239 60.5792 57.7829 60.6062 57.9689C60.641 58.1862 60.6601 58.4058 60.6632 58.6259C60.6631 58.795 60.647 58.9638 60.6152 59.1299C60.5561 59.4284 60.4242 59.7076 60.2312 59.9429C60.0931 60.1058 59.9238 60.2395 59.7332 60.3359C59.5692 60.4206 59.3915 60.4754 59.2082 60.4979C58.9839 60.5243 58.7565 60.5059 58.5392 60.4439C58.3079 60.3811 58.0888 60.2797 57.8912 60.1439C57.6182 59.955 57.3694 59.7333 57.1502 59.4839C56.9474 59.2582 56.7618 59.0175 56.5952 58.7639L57.7052 57.5159C58.1193 57.6962 58.5466 57.8446 58.9832 57.9599C59.0552 57.9599 59.1242 57.9599 59.0702 57.9239C58.9845 57.886 58.8895 57.8745 58.7972 57.8909C58.6784 57.9041 58.5627 57.9376 58.4552 57.9899C58.3129 58.0625 58.1874 58.1641 58.0866 58.2881C57.9859 58.4121 57.9122 58.5557 57.8702 58.7099C57.8492 58.7879 57.8462 58.8149 57.8342 58.8179C57.8222 58.8209 57.7952 58.7639 57.7592 58.6979L57.6362 58.4489C57.5912 58.3649 57.5402 58.2299 57.4922 58.1219C57.3932 57.8939 57.3032 57.6659 57.1922 57.4409C56.9882 56.9879 56.7752 56.5409 56.5472 56.0879C56.0912 55.1879 55.6022 54.3089 55.0922 53.4359C54.8342 53.0009 54.5732 52.5659 54.3062 52.1369C54.0392 51.7079 53.7632 51.2669 53.5112 50.8859L56.2682 48.9299Z" fill="#CE7A63"/>
<path d="M55.4313 46.905C53.2233 46.392 51.8823 47.805 52.5423 50.568C52.9519 52.1487 53.4527 53.7043 54.0423 55.227C54.1713 55.569 54.2913 55.875 54.3903 56.127L59.4003 53.325C58.8603 51.132 56.9073 47.25 55.4313 46.905Z" fill="url(#paint9_linear_148_2105)"/>
<path opacity="0.3" d="M55.5242 49.5241C54.1922 48.3241 55.5542 53.1601 56.1242 55.1641L57.5972 54.3421C57.4412 52.9531 56.5472 50.4391 55.5242 49.5241Z" fill="black"/>
<path d="M43.7942 122.601H46.0172L46.3472 117.45H44.1242L43.7942 122.601Z" fill="#CE7A63"/>
<path d="M46.1373 122.343H43.6383C43.6174 122.342 43.5965 122.346 43.5769 122.353C43.5573 122.36 43.5394 122.371 43.524 122.385C43.5087 122.4 43.4963 122.417 43.4876 122.436C43.4789 122.455 43.474 122.475 43.4733 122.496L43.3353 124.473C43.3345 124.524 43.3439 124.575 43.363 124.623C43.3821 124.671 43.4104 124.714 43.4465 124.751C43.4825 124.787 43.5254 124.816 43.5728 124.836C43.6201 124.856 43.6709 124.866 43.7223 124.866C44.5923 124.851 45.0063 124.8 46.1073 124.8C46.7823 124.8 49.6563 124.872 50.5893 124.872C51.5223 124.872 51.5043 123.948 51.1083 123.864C49.3383 123.489 47.1423 122.964 46.5183 122.481C46.4111 122.392 46.2764 122.343 46.1373 122.343Z" fill="#263238"/>
<path opacity="0.2" d="M44.1241 117.45H46.3471L46.1761 120.105H43.9531L44.1241 117.45Z" fill="black"/>
<path d="M51.8073 66.1409C51.8073 66.1409 51.8823 83.0249 51.4713 89.3909C51.0213 96.3659 47.1363 119.466 47.1363 119.466H43.0623C43.0623 119.466 45.0873 96.9269 44.8953 90.0239C44.6883 82.5239 44.2533 66.1409 44.2533 66.1409H51.8073Z" fill="url(#paint10_linear_148_2105)"/>
<path opacity="0.5" d="M51.8073 66.1409C51.8073 66.1409 51.8823 83.0249 51.4713 89.3909C51.0213 96.3659 47.1363 119.466 47.1363 119.466H43.0623C43.0623 119.466 45.0873 96.9269 44.8953 90.0239C44.6883 82.5239 44.2533 66.1409 44.2533 66.1409H51.8073Z" fill="black"/>
<path d="M42.8973 119.466H47.3013L47.5563 117.918L42.6963 118.161L42.8973 119.466Z" fill="url(#paint11_linear_148_2105)"/>
<path d="M46.9232 122.73C46.721 122.725 46.5199 122.699 46.3232 122.652C46.3137 122.649 46.3052 122.643 46.2984 122.636C46.2916 122.629 46.2867 122.62 46.2842 122.61C46.2828 122.6 46.2843 122.59 46.2885 122.581C46.2928 122.572 46.2997 122.564 46.3082 122.559C46.3772 122.508 47.0102 122.079 47.2832 122.184C47.3137 122.196 47.3405 122.216 47.3609 122.242C47.3814 122.268 47.395 122.299 47.4002 122.331C47.4139 122.38 47.4151 122.431 47.4035 122.481C47.392 122.53 47.3681 122.575 47.3342 122.613C47.2162 122.701 47.0699 122.743 46.9232 122.73ZM46.4732 122.577C46.8692 122.655 47.1632 122.643 47.2682 122.538C47.2903 122.514 47.3056 122.484 47.3124 122.452C47.3193 122.42 47.3175 122.386 47.3072 122.355C47.305 122.339 47.2985 122.323 47.2886 122.31C47.2786 122.297 47.2654 122.287 47.2502 122.28C47.1002 122.223 46.7312 122.4 46.4732 122.577Z" fill="url(#paint12_linear_148_2105)"/>
<path d="M46.3411 122.652H46.3171C46.3097 122.647 46.3034 122.641 46.2988 122.634C46.2941 122.627 46.2911 122.619 46.2901 122.61C46.2901 122.583 46.2421 121.944 46.4701 121.728C46.4981 121.699 46.5326 121.678 46.5708 121.665C46.6089 121.653 46.6495 121.649 46.6891 121.656C46.733 121.658 46.7751 121.674 46.8088 121.702C46.8425 121.73 46.8658 121.769 46.8751 121.812C46.9261 122.055 46.5901 122.52 46.3681 122.652H46.3411ZM46.6411 121.752C46.6205 121.751 46.6 121.755 46.5809 121.763C46.5618 121.771 46.5445 121.782 46.5301 121.797C46.4059 122.01 46.3524 122.257 46.3771 122.502C46.5866 122.334 46.7249 122.093 46.7641 121.827C46.7641 121.797 46.7401 121.761 46.6651 121.752H46.6411Z" fill="url(#paint13_linear_148_2105)"/>
<path d="M56.1483 66.1409H44.2533C44.1783 65.0789 44.4513 61.623 44.3013 57.222C44.2158 53.9622 43.8474 50.716 43.2003 47.5199C43.1493 47.2799 43.0953 47.0429 43.0413 46.8029C43.0413 46.8029 43.6413 46.6799 44.5083 46.5539C45.2283 46.4489 46.1283 46.341 47.0103 46.299C48.6939 46.2029 50.3816 46.2029 52.0653 46.299C52.8423 46.371 53.6013 46.4999 54.2043 46.6169C54.9783 46.7729 55.4343 46.9169 55.4343 46.9169C55.4343 46.9169 58.3083 53.6339 56.1483 66.1409Z" fill="url(#paint14_linear_148_2105)"/>
<path d="M56.3102 57.117C56.1035 56.7571 55.8283 56.4412 55.5002 56.187C55.2789 56.06 55.0673 55.9166 54.8672 55.758C54.8467 55.7426 54.8224 55.7328 54.7969 55.7297C54.7714 55.7266 54.7455 55.7302 54.7218 55.7403C54.6981 55.7503 54.6775 55.7663 54.6619 55.7868C54.6464 55.8073 54.6365 55.8315 54.6332 55.857C54.6092 56.031 54.6812 56.316 55.1072 56.73C55.1402 57.279 55.9472 57.885 55.9472 57.885L56.3102 57.117Z" fill="#CE7A63"/>
<path opacity="0.3" d="M54.4952 58.443H52.0232L53.7332 53.568H56.2052L54.4952 58.443Z" fill="black"/>
<path d="M54.6634 58.443H52.1914L53.9014 53.568H56.3734L54.6634 58.443Z" fill="#263238"/>
<path opacity="0.3" d="M44.3012 57.222C44.2157 53.9622 43.8473 50.716 43.2002 47.52C43.9952 47.451 45.3542 47.52 45.5702 48.813C45.7982 50.193 45.4652 53.439 44.3012 57.222Z" fill="black"/>
<path d="M45.3664 49.6229L44.1004 53.9549L43.4734 56.1179L43.1734 57.1979L43.0234 57.7349L42.9514 58.0049V58.0379C42.9514 58.0379 42.9514 58.0559 42.9514 58.0379C42.9528 58.0189 42.9528 57.9999 42.9514 57.9809C42.9571 57.925 42.9571 57.8687 42.9514 57.8129C42.9299 57.6704 42.8777 57.5343 42.7984 57.4139C42.7504 57.342 42.6881 57.2807 42.6154 57.2339C42.5374 57.1919 42.5884 57.2339 42.6724 57.2729C42.9303 57.3633 43.1983 57.4218 43.4704 57.4469C44.1678 57.5208 44.8692 57.5509 45.5704 57.5369C47.0254 57.5189 48.5434 57.4349 50.0284 57.3329L50.3584 58.9709C48.8607 59.4483 47.328 59.8083 45.7744 60.0479C44.9578 60.1783 44.1323 60.2445 43.3054 60.2459C42.8154 60.2464 42.327 60.189 41.8504 60.0749C41.5005 59.9927 41.1689 59.8462 40.8724 59.6429C40.642 59.4827 40.4452 59.2789 40.2934 59.0429C40.1048 58.7654 39.9865 58.4462 39.9484 58.1129C39.9335 57.9623 39.9335 57.8105 39.9484 57.6599C39.9484 57.5939 39.9484 57.5279 39.9754 57.4619L39.9964 57.3419L40.0504 57.0419L40.1554 56.4689C40.2274 56.0879 40.3054 55.7069 40.3894 55.3289C40.5514 54.5729 40.7194 53.8289 40.9084 53.0699C41.2774 51.5699 41.6884 50.0999 42.1624 48.6179L45.3664 49.6229Z" fill="#CE7A63"/>
<path d="M43.0382 46.8C41.5562 47.145 39.8941 51.048 39.3091 53.241C39.2101 53.616 39.1322 53.937 39.0722 54.183C38.9942 54.507 38.9521 54.702 38.9521 54.702L43.9232 56.118C44.0252 55.872 44.1511 55.566 44.2831 55.218C44.9016 53.6972 45.4305 52.1416 45.8671 50.559C46.5721 47.802 45.2522 46.29 43.0382 46.8Z" fill="url(#paint15_linear_148_2105)"/>
<path d="M51.8223 46.281C50.3553 45.933 50.1063 45.024 50.2113 44.025C50.2366 43.7747 50.2777 43.5262 50.3343 43.281L48.5043 41.751L47.1603 40.629C47.5233 42.258 47.9223 45.225 46.8123 46.311C48.284 47.536 49.9161 48.5544 51.6633 49.338C53.4003 48.063 51.8223 46.281 51.8223 46.281Z" fill="#CE7A63"/>
<path opacity="0.2" d="M50.3344 43.2809C50.2778 43.5261 50.2367 43.7746 50.2114 44.0249C49.5274 43.8869 48.4924 43.2749 48.4114 42.5009C48.4155 42.2475 48.4508 41.9956 48.5164 41.7509L50.3344 43.2809Z" fill="black"/>
<path d="M53.7633 35.4629C54.4023 36.4769 53.1963 39.3959 51.6633 39.1859C50.1303 38.9759 52.5573 33.5369 53.7633 35.4629Z" fill="#263238"/>
<path d="M47.2952 37.344C47.0252 39.543 46.7522 40.812 47.6312 42.144C47.915 42.5855 48.314 42.9411 48.7852 43.1724C49.2564 43.4036 49.7819 43.5017 50.3048 43.4559C50.8277 43.4102 51.3281 43.2225 51.7521 42.913C52.176 42.6035 52.5073 42.1841 52.7102 41.7C53.5352 39.849 53.8412 36.567 51.8972 35.25C51.4795 34.955 50.9918 34.7745 50.4827 34.7265C49.9736 34.6785 49.4608 34.7647 48.9954 34.9765C48.5299 35.1883 48.128 35.5183 47.8298 35.9337C47.5315 36.349 47.3472 36.8352 47.2952 37.344Z" fill="#CE7A63"/>
<path d="M47.0402 39.0299C48.1652 38.8889 48.9782 37.0139 48.7472 36.1379C49.5752 36.7379 56.1482 37.4999 55.1462 33.2129C53.2712 33.2129 45.4472 32.8619 46.7462 34.5509C45.8462 34.5509 44.9942 35.3669 45.6062 37.2509C46.2242 39.1889 47.0402 39.0299 47.0402 39.0299Z" fill="#263238"/>
<path d="M46.0773 39.3181C46.268 39.8298 46.6307 40.2593 47.1033 40.5331C47.7033 40.8661 48.0633 40.3171 47.9373 39.6331C47.8263 39.0121 47.3763 38.0911 46.7373 38.0461C46.0983 38.0011 45.8373 38.6701 46.0773 39.3181Z" fill="#CE7A63"/>
<path d="M50.4453 38.6519C50.4123 38.8289 50.4783 38.9909 50.5923 39.0149C50.7063 39.0389 50.8263 38.9159 50.8593 38.7389C50.8923 38.5619 50.8263 38.3999 50.7123 38.3759C50.5983 38.3519 50.4783 38.4749 50.4453 38.6519Z" fill="#263238"/>
<path d="M52.4253 39.075C52.3923 39.252 52.4583 39.417 52.5723 39.441C52.6863 39.465 52.8063 39.342 52.8393 39.165C52.8723 38.988 52.8063 38.826 52.6923 38.802C52.5783 38.778 52.4583 38.901 52.4253 39.075Z" fill="#263238"/>
<path d="M51.7773 39.0299C51.8867 39.615 52.0733 40.183 52.3323 40.7189C52.1956 40.7793 52.0473 40.8087 51.8979 40.8051C51.7486 40.8015 51.6018 40.7649 51.4683 40.6979L51.7773 39.0299Z" fill="#BA4D3C"/>
<path d="M50.6642 41.0219C50.468 40.956 50.2871 40.851 50.1324 40.7134C49.9778 40.5757 49.8525 40.4082 49.7642 40.2209C49.7601 40.2142 49.7576 40.2067 49.7567 40.1988C49.7558 40.191 49.7566 40.1831 49.7592 40.1756C49.7617 40.1682 49.7658 40.1613 49.7712 40.1556C49.7766 40.1499 49.7832 40.1455 49.7906 40.1426C49.7979 40.1397 49.8057 40.1384 49.8136 40.1389C49.8215 40.1394 49.8291 40.1416 49.8361 40.1453C49.843 40.1491 49.849 40.1543 49.8537 40.1606C49.8584 40.1669 49.8616 40.1742 49.8632 40.1819C49.9625 40.3841 50.1069 40.5606 50.2853 40.698C50.4638 40.8353 50.6714 40.9297 50.8922 40.9739C50.8993 40.975 50.9061 40.9775 50.9121 40.9813C50.9181 40.9851 50.9233 40.9902 50.9272 40.9961C50.9312 41.002 50.9339 41.0087 50.9351 41.0158C50.9363 41.0228 50.936 41.03 50.9342 41.0369C50.9307 41.0502 50.9222 41.0617 50.9105 41.0689C50.8988 41.0762 50.8847 41.0787 50.8712 41.0759C50.8012 41.0621 50.7321 41.0441 50.6642 41.0219Z" fill="#263238"/>
<path d="M49.9533 37.875C49.9361 37.8691 49.9208 37.8587 49.9088 37.845C49.8968 37.8313 49.8886 37.8146 49.8849 37.7968C49.8813 37.7789 49.8824 37.7604 49.888 37.7431C49.8937 37.7258 49.9038 37.7103 49.9173 37.698C50.0385 37.5839 50.1858 37.5012 50.3464 37.4572C50.507 37.4133 50.6759 37.4094 50.8383 37.446C50.8651 37.4544 50.8876 37.4728 50.9011 37.4975C50.9145 37.5221 50.9178 37.551 50.9103 37.578C50.9014 37.6044 50.8828 37.6265 50.8584 37.6398C50.8339 37.6531 50.8053 37.6568 50.7783 37.65C50.6508 37.6231 50.5186 37.6276 50.3931 37.6632C50.2677 37.6987 50.1528 37.7642 50.0583 37.854C50.0443 37.8666 50.0272 37.8752 50.0087 37.8789C49.9902 37.8826 49.9711 37.8813 49.9533 37.875Z" fill="#263238"/>
<path d="M53.4002 38.571C53.3841 38.5663 53.3695 38.5574 53.358 38.5453C53.3464 38.5332 53.3382 38.5183 53.3342 38.502C53.3032 38.3707 53.2425 38.2483 53.1566 38.1443C53.0708 38.0402 52.9622 37.9573 52.8392 37.902C52.8259 37.8977 52.8136 37.8907 52.8032 37.8814C52.7927 37.8722 52.7843 37.8608 52.7784 37.8482C52.7725 37.8355 52.7692 37.8218 52.7688 37.8078C52.7685 37.7939 52.7709 37.78 52.7762 37.767C52.7851 37.7409 52.8039 37.7193 52.8286 37.7069C52.8533 37.6946 52.8819 37.6924 52.9082 37.701C53.0632 37.767 53.2007 37.8684 53.3096 37.9971C53.4185 38.1258 53.4957 38.2781 53.5352 38.442C53.5426 38.4687 53.5392 38.4972 53.5257 38.5213C53.5122 38.5455 53.4897 38.5633 53.4632 38.571C53.4428 38.5786 53.4205 38.5786 53.4002 38.571Z" fill="#263238"/>
<path d="M49.6324 57.414L52.0084 56.184L51.6004 58.959C51.6004 58.959 49.6474 59.496 49.4644 58.467L49.6324 57.414Z" fill="#CE7A63"/>
<path d="M51.2522 56.5739C51.5181 56.2505 51.8441 55.9816 52.2122 55.7819C52.4781 55.6619 52.7322 55.5173 52.9712 55.3499C52.9938 55.3379 53.0191 55.332 53.0446 55.3328C53.0702 55.3336 53.0951 55.341 53.1169 55.3543C53.1387 55.3676 53.1566 55.3864 53.169 55.4088C53.1813 55.4312 53.1876 55.4564 53.1872 55.4819C53.1415 55.6706 53.0574 55.8479 52.9402 56.0027C52.8231 56.1575 52.6753 56.2866 52.5062 56.3819C52.3802 56.9189 51.4802 57.3899 51.4802 57.3899L51.2522 56.5739Z" fill="#CE7A63"/>
<path d="M53.9521 56.568L53.6191 58.299C53.6049 58.3733 53.5686 58.4416 53.5152 58.4951C53.4617 58.5485 53.3934 58.5847 53.3191 58.599L51.5791 58.959L52.0021 56.208L53.5651 56.127C53.6217 56.1231 53.6785 56.1323 53.731 56.154C53.7835 56.1756 53.8303 56.2091 53.8677 56.2517C53.9052 56.2944 53.9323 56.3451 53.9469 56.4C53.9615 56.4549 53.9633 56.5123 53.9521 56.568Z" fill="#CE7A63"/>
<path d="M49.4492 58.467L49.6322 57.414L52.0082 56.184" fill="#CE7A63"/>
<path d="M57.3633 57.642L55.4703 56.496L55.3323 58.959C55.3323 58.959 57.3273 59.724 57.5283 58.695L57.3633 57.642Z" fill="#CE7A63"/>
<path d="M54.6002 56.523L54.4502 58.464C54.446 58.5172 54.4597 58.5703 54.489 58.6148C54.5184 58.6594 54.5617 58.6929 54.6122 58.71L55.3292 58.959L55.4672 56.496L54.9212 56.31C54.886 56.298 54.8485 56.2942 54.8115 56.299C54.7746 56.3037 54.7393 56.3169 54.7083 56.3375C54.6772 56.3581 54.6514 56.3855 54.6326 56.4177C54.6139 56.4498 54.6028 56.4859 54.6002 56.523Z" fill="#CE7A63"/>
<path d="M51.8072 26.163C51.8072 26.3766 51.7439 26.5854 51.6252 26.763C51.5065 26.9406 51.3379 27.079 51.1405 27.1608C50.9432 27.2425 50.726 27.2639 50.5165 27.2222C50.307 27.1806 50.1146 27.0777 49.9635 26.9267C49.8125 26.7756 49.7096 26.5832 49.668 26.3737C49.6263 26.1642 49.6477 25.947 49.7294 25.7497C49.8112 25.5523 49.9496 25.3837 50.1272 25.265C50.3048 25.1463 50.5136 25.083 50.7272 25.083C51.0136 25.083 51.2884 25.1968 51.4909 25.3993C51.6934 25.6018 51.8072 25.8765 51.8072 26.163Z" fill="url(#paint16_linear_148_2105)"/>
<path d="M47.5562 26.7989C47.5562 27.0125 47.4929 27.2213 47.3742 27.3989C47.2556 27.5765 47.0869 27.7149 46.8895 27.7967C46.6922 27.8784 46.475 27.8998 46.2655 27.8581C46.056 27.8165 45.8636 27.7136 45.7126 27.5626C45.5615 27.4115 45.4587 27.2191 45.417 27.0096C45.3753 26.8001 45.3967 26.5829 45.4785 26.3856C45.5602 26.1883 45.6986 26.0196 45.8762 25.9009C46.0538 25.7822 46.2626 25.7189 46.4762 25.7189C46.7627 25.7189 47.0374 25.8327 47.2399 26.0352C47.4425 26.2378 47.5562 26.5125 47.5562 26.7989Z" fill="url(#paint17_linear_148_2105)"/>
<path d="M54.9814 28.5179C55.5778 28.5179 56.0614 28.0344 56.0614 27.4379C56.0614 26.8415 55.5778 26.3579 54.9814 26.3579C54.3849 26.3579 53.9014 26.8415 53.9014 27.4379C53.9014 28.0344 54.3849 28.5179 54.9814 28.5179Z" fill="url(#paint18_linear_148_2105)"/>
</g>
<defs>
<linearGradient id="paint0_linear_148_2105" x1="126.786" y1="44.4389" x2="126.786" y2="46.0919" gradientUnits="userSpaceOnUse">
<stop stop-color="#FFBE40"/>
<stop offset="0.544792" stop-color="#FF0000"/>
<stop offset="0.836458" stop-color="#FF0038"/>
<stop offset="1" stop-color="#FF006B"/>
</linearGradient>
<linearGradient id="paint1_linear_148_2105" x1="126.786" y1="38.0908" x2="126.786" y2="43.0228" gradientUnits="userSpaceOnUse">
<stop stop-color="#FFBE40"/>
<stop offset="0.544792" stop-color="#FF0000"/>
<stop offset="0.836458" stop-color="#FF0038"/>
<stop offset="1" stop-color="#FF006B"/>
</linearGradient>
<linearGradient id="paint2_linear_148_2105" x1="96.9151" y1="27.384" x2="96.9151" y2="89.982" gradientUnits="userSpaceOnUse">
<stop stop-color="#FFBE40"/>
<stop offset="0.544792" stop-color="#FF0000"/>
<stop offset="0.836458" stop-color="#FF0038"/>
<stop offset="1" stop-color="#FF006B"/>
</linearGradient>
<linearGradient id="paint3_linear_148_2105" x1="95.6897" y1="55.74" x2="95.6897" y2="60.615" gradientUnits="userSpaceOnUse">
<stop stop-color="#FFBE40"/>
<stop offset="0.544792" stop-color="#FF0000"/>
<stop offset="0.836458" stop-color="#FF0038"/>
<stop offset="1" stop-color="#FF006B"/>
</linearGradient>
<linearGradient id="paint4_linear_148_2105" x1="98.7412" y1="64.0394" x2="98.7412" y2="65.608" gradientUnits="userSpaceOnUse">
<stop stop-color="#FFBE40"/>
<stop offset="0.544792" stop-color="#FF0000"/>
<stop offset="0.836458" stop-color="#FF0038"/>
<stop offset="1" stop-color="#FF006B"/>
</linearGradient>
<linearGradient id="paint5_linear_148_2105" x1="55.4582" y1="66.1409" x2="55.4582" y2="118.8" gradientUnits="userSpaceOnUse">
<stop stop-color="#FFBE40"/>
<stop offset="0.544792" stop-color="#FF0000"/>
<stop offset="0.836458" stop-color="#FF0038"/>
<stop offset="1" stop-color="#FF006B"/>
</linearGradient>
<linearGradient id="paint6_linear_148_2105" x1="60.4861" y1="115.992" x2="60.4861" y2="118.866" gradientUnits="userSpaceOnUse">
<stop stop-color="#FFBE40"/>
<stop offset="0.544792" stop-color="#FF0000"/>
<stop offset="0.836458" stop-color="#FF0038"/>
<stop offset="1" stop-color="#FF006B"/>
</linearGradient>
<linearGradient id="paint7_linear_148_2105" x1="63.2225" y1="120.448" x2="63.2225" y2="121.122" gradientUnits="userSpaceOnUse">
<stop stop-color="#FFBE40"/>
<stop offset="0.544792" stop-color="#FF0000"/>
<stop offset="0.836458" stop-color="#FF0038"/>
<stop offset="1" stop-color="#FF006B"/>
</linearGradient>
<linearGradient id="paint8_linear_148_2105" x1="62.8567" y1="120.062" x2="62.8567" y2="121.119" gradientUnits="userSpaceOnUse">
<stop stop-color="#FFBE40"/>
<stop offset="0.544792" stop-color="#FF0000"/>
<stop offset="0.836458" stop-color="#FF0038"/>
<stop offset="1" stop-color="#FF006B"/>
</linearGradient>
<linearGradient id="paint9_linear_148_2105" x1="55.8869" y1="46.8011" x2="55.8869" y2="56.127" gradientUnits="userSpaceOnUse">
<stop stop-color="#FFBE40"/>
<stop offset="0.544792" stop-color="#FF0000"/>
<stop offset="0.836458" stop-color="#FF0038"/>
<stop offset="1" stop-color="#FF006B"/>
</linearGradient>
<linearGradient id="paint10_linear_148_2105" x1="47.4374" y1="66.1409" x2="47.4374" y2="119.466" gradientUnits="userSpaceOnUse">
<stop stop-color="#FFBE40"/>
<stop offset="0.544792" stop-color="#FF0000"/>
<stop offset="0.836458" stop-color="#FF0038"/>
<stop offset="1" stop-color="#FF006B"/>
</linearGradient>
<linearGradient id="paint11_linear_148_2105" x1="45.1263" y1="117.918" x2="45.1263" y2="119.466" gradientUnits="userSpaceOnUse">
<stop stop-color="#FFBE40"/>
<stop offset="0.544792" stop-color="#FF0000"/>
<stop offset="0.836458" stop-color="#FF0038"/>
<stop offset="1" stop-color="#FF006B"/>
</linearGradient>
<linearGradient id="paint12_linear_148_2105" x1="46.8475" y1="122.168" x2="46.8475" y2="122.732" gradientUnits="userSpaceOnUse">
<stop stop-color="#FFBE40"/>
<stop offset="0.544792" stop-color="#FF0000"/>
<stop offset="0.836458" stop-color="#FF0038"/>
<stop offset="1" stop-color="#FF006B"/>
</linearGradient>
<linearGradient id="paint13_linear_148_2105" x1="46.5831" y1="121.653" x2="46.5831" y2="122.652" gradientUnits="userSpaceOnUse">
<stop stop-color="#FFBE40"/>
<stop offset="0.544792" stop-color="#FF0000"/>
<stop offset="0.836458" stop-color="#FF0038"/>
<stop offset="1" stop-color="#FF006B"/>
</linearGradient>
<linearGradient id="paint14_linear_148_2105" x1="49.997" y1="46.2269" x2="49.997" y2="66.1409" gradientUnits="userSpaceOnUse">
<stop stop-color="#FFBE40"/>
<stop offset="0.544792" stop-color="#FF0000"/>
<stop offset="0.836458" stop-color="#FF0038"/>
<stop offset="1" stop-color="#FF006B"/>
</linearGradient>
<linearGradient id="paint15_linear_148_2105" x1="42.5049" y1="46.7019" x2="42.5049" y2="56.118" gradientUnits="userSpaceOnUse">
<stop stop-color="#FFBE40"/>
<stop offset="0.544792" stop-color="#FF0000"/>
<stop offset="0.836458" stop-color="#FF0038"/>
<stop offset="1" stop-color="#FF006B"/>
</linearGradient>
<linearGradient id="paint16_linear_148_2105" x1="50.7272" y1="25.083" x2="50.7272" y2="27.243" gradientUnits="userSpaceOnUse">
<stop stop-color="#FFBE40"/>
<stop offset="0.544792" stop-color="#FF0000"/>
<stop offset="0.836458" stop-color="#FF0038"/>
<stop offset="1" stop-color="#FF006B"/>
</linearGradient>
<linearGradient id="paint17_linear_148_2105" x1="46.4762" y1="25.7189" x2="46.4762" y2="27.8789" gradientUnits="userSpaceOnUse">
<stop stop-color="#FFBE40"/>
<stop offset="0.544792" stop-color="#FF0000"/>
<stop offset="0.836458" stop-color="#FF0038"/>
<stop offset="1" stop-color="#FF006B"/>
</linearGradient>
<linearGradient id="paint18_linear_148_2105" x1="54.9814" y1="26.3579" x2="54.9814" y2="28.5179" gradientUnits="userSpaceOnUse">
<stop stop-color="#FFBE40"/>
<stop offset="0.544792" stop-color="#FF0000"/>
<stop offset="0.836458" stop-color="#FF0038"/>
<stop offset="1" stop-color="#FF006B"/>
</linearGradient>
<clipPath id="clip0_148_2105">
<rect width="150" height="150" fill="white"/>
</clipPath>
</defs>
</svg>
